<?xml version="1.0" encoding="utf-8"?>
<!-- Generator: Adobe Illustrator 27.5.0, SVG Export Plug-In . SVG Version: 6.00 Build 0)  -->
<svg version="1.1" id="Layer_1" xmlns="http://www.w3.org/2000/svg" xmlns:xlink="http://www.w3.org/1999/xlink" x="0px" y="0px"
	 viewBox="0 0 4000 4000" style="enable-background:new 0 0 4000 4000;" xml:space="preserve">
<g>
	<g>
		<rect style="fill:#CCEEFF;" width="4000" height="4000"/>
	</g>
	<g>
		<g>
			<g>
				<path style="fill:#39D4FF;" d="M1415.779,2645.541c-102.023,5.482-426.052,19.03-581.844,97.418
					c-13.187,6.635-98.506,48.33-85.257,84.417c7.615,20.742,31.259,32.977,38.248,53.929c11.274,33.798-24.929,63.004-55.013,83.01
					c-30.083,20.006-61.787,57.229-41.232,86.563c6.667,9.514,17.597,15.262,28.482,19.723
					c75.377,30.884,162.677,15.688,241.193,37.891c32.058,9.065,66.058,29.353,70.127,61.706
					c3.443,27.379-16.049,52.838-17.354,80.394c-1.492,31.504,21.745,60.162,50.176,75.112c28.432,14.95,61.39,18.879,93.492,22.27
					c182.766,19.305,366.524,29.651,550.351,30.985c33.262,0.242,73.394,3.152,120.593,21.614
					c43.632,17.067,55.755,33.623,97.518,50.084c45.148,17.796,83.432,19.121,127.335,19.899
					c231.719,4.108,349.693,5.342,453.313-34.823c47.687-18.484,97.198-43.729,97.199-43.729
					c62.499-31.866,80.723-48.765,121.818-70.69c28.085-14.984,80.319-30.326,183.642-60.399
					c118.78-34.571,165.826-43.233,194.501-88.168c9.797-15.352,16.377-32.637,27.558-47.058
					c30.424-39.238,85.753-48.052,134.878-59.027c96.67-21.597,125.273-40.182,137.749-53.531c4.185-4.477,7.369-9.305,7.369-9.305
					c13.947-21.974,8.675-47.527,7.006-55.619c-5.768-16.612-17.081-42.216-40.129-64.672
					c-53.306-51.937-110.835-29.997-245.102-74.622c-36.688-12.193-72.074-23.97-114.898-49.748
					c-49.236-29.637-49.883-42.638-95-64.672c-30.857-15.07-81.614-39.037-135-24.874c-23.576,6.254-19.215,12.397-49.362,22.076
					c-40.966,13.152-76.146,8.406-116.063,7.251c-22.827-0.66-49.385-4.16-84.637-13.381
					c-96.808-25.321-119.679-57.291-228.486-78.613c-80.462-15.767-143.527-13.093-190.538-10.8
					C1790.491,2612.148,1612.854,2634.952,1415.779,2645.541z"/>
			</g>
			<g style="opacity:0.25;">
				<g>
					<path style="fill:#000072;" d="M782.479,2872.004c6.239-11.1,8.658-23.078,4.448-35.699
						c-5.23-15.68-19.788-26.479-29.975-39.614c-7.971,10.074-11.977,20.599-8.273,30.686
						C755.095,2844.852,772.854,2856.305,782.479,2872.004z"/>
				</g>
				<g>
					<path style="fill:#000072;" d="M3416.729,2945.756c-1.426,4.389-3.395,8.796-6.106,13.068c0,0-3.185,4.828-7.369,9.305
						c-12.476,13.349-41.079,31.934-137.749,53.531c-49.125,10.975-104.454,19.789-134.878,59.028
						c-11.181,14.42-17.761,31.705-27.558,47.057c-28.674,44.936-75.721,53.597-194.501,88.169
						c-103.323,30.073-155.557,45.415-183.642,60.399c-41.095,21.926-59.319,38.825-121.818,70.69c0,0-49.512,25.245-97.199,43.729
						c-103.62,40.165-221.594,38.931-453.313,34.823c-43.903-0.778-82.187-2.103-127.335-19.899
						c-41.763-16.46-53.885-33.016-97.518-50.084c-47.2-18.462-87.331-21.372-120.593-21.614
						c-183.827-1.334-367.585-11.68-550.351-30.985c-32.103-3.391-65.061-7.321-93.492-22.271
						c-20.812-10.943-38.794-29.246-46.377-50.618c-1.982,6.745-3.47,13.559-3.799,20.507
						c-1.492,31.504,21.745,60.161,50.176,75.111c28.432,14.95,61.39,18.879,93.492,22.271
						c182.766,19.305,366.524,29.651,550.351,30.985c33.262,0.242,73.394,3.152,120.593,21.614
						c43.632,17.068,55.755,33.624,97.518,50.084c45.148,17.795,83.432,19.12,127.335,19.899
						c231.719,4.108,349.693,5.342,453.313-34.823c47.687-18.484,97.198-43.729,97.199-43.729
						c62.499-31.865,80.723-48.765,121.818-70.69c28.085-14.984,80.319-30.326,183.642-60.399
						c118.78-34.572,165.826-43.233,194.501-88.169c9.797-15.352,16.377-32.637,27.558-47.057
						c30.424-39.238,85.753-48.052,134.878-59.028c96.67-21.597,125.273-40.183,137.749-53.531c4.185-4.477,7.369-9.305,7.369-9.305
						c13.947-21.974,8.675-47.527,7.006-55.619C3417.362,2947.438,3417.02,2946.561,3416.729,2945.756z"/>
				</g>
				<g>
					<path style="fill:#000072;" d="M1026.575,3156.27c3.14-10.225,5.237-20.505,3.909-31.072
						c-4.068-32.354-38.069-52.64-70.127-61.705c-78.516-22.203-165.816-7.007-241.193-37.891
						c-10.699-4.385-21.419-10.033-28.114-19.259c-8.083,14.829-10.151,30.574-0.368,44.536
						c6.667,9.514,17.597,15.262,28.482,19.723c75.377,30.884,162.677,15.688,241.193,37.891
						C987.526,3116.175,1016.019,3131.952,1026.575,3156.27z"/>
				</g>
			</g>
			<g>
				<g>
					<path style="fill:#000072;" d="M1415.779,2634.349c-78.334,1.312-156.2,6.13-234.135,14.521
						c-97.132,10.458-195.993,24.214-288.957,55.313c-33.407,11.176-66.019,25.236-96.25,43.408
						c-26.776,16.095-72.901,45.817-61.104,83.464c7.313,23.335,39.503,37.676,39.82,62.695
						c0.33,26.076-31.613,45.778-50.226,58.612c-21.729,14.982-43.079,34.531-51.666,60.271
						c-9.012,27.016,4.546,52.376,28.843,65.265c56.417,29.927,125.446,26.823,187.221,32.434
						c46.672,4.239,144.53,16.984,124.323,85.864c-7.98,27.201-19.961,52.312-10.666,81.004
						c8.29,25.592,28.288,46.656,51.567,59.498c28.391,15.662,60.823,20.513,92.597,24.09c35.441,3.99,70.972,7.295,106.497,10.429
						c146.306,12.908,293.121,20.073,439.988,21.495c29.374,0.284,58.331,1.199,87.093,7.825
						c30.779,7.091,59.311,19.088,86.305,35.36c25.855,15.584,52.086,29.056,81.378,37.084
						c30.799,8.441,62.728,10.542,94.517,11.262c108.949,2.471,219.784,7.216,328.401-4.146
						c37.736-3.947,75.337-10.289,111.6-21.647c43.405-13.595,85.302-33.307,125.844-53.776
						c41.469-20.937,79.277-47.657,120.047-69.691c31.016-16.763,66.235-25.97,99.799-36.08
						c57.392-17.286,115.306-32.853,172.619-50.388c34.488-10.552,72.184-22.208,98.089-48.724
						c15.795-16.168,24.067-36.776,35.656-55.81c15.253-25.051,40.08-38.782,67.348-47.566
						c51.396-16.556,105.56-22.28,156.237-41.699c27.008-10.349,55.443-24.029,68.224-51.743
						c21.538-46.7-8.765-101.761-43.463-133.03c-26.738-24.095-59.574-33.808-94.32-39.872
						c-53.223-9.29-105.392-18.767-156.837-35.877c-55.531-18.469-107.01-42.087-152.75-79.138
						c-38.304-31.028-87.127-55.487-136.35-62.051c-26.448-3.527-56.387-1.857-80.134,11.503
						c-24.751,13.925-49.786,21.183-78.492,22.141c-59.595,1.989-118.299-5.254-174.993-23.806
						c-44.97-14.716-86.621-37.658-131.533-52.51c-59.25-19.595-122.68-28.42-184.953-29.696
						c-58.465-1.198-117.188,3.589-175.512,6.968c-60.629,3.512-121.226,7.557-181.788,12.072
						c-97.336,7.256-194.551,16.017-291.873,23.443c-42.641,3.254-85.308,6.167-128.011,8.478c-17.852,0.966-17.965,28.863,0,27.891
						c195.097-10.555,389.508-31.39,584.557-43.01c118.917-7.084,238.773-18.073,354.899,15.957
						c45.002,13.188,86.219,35.433,130.125,51.487c52.689,19.265,105.413,27.508,161.141,29.943
						c32.125,1.403,64.405,1.22,95.337-8.745c20.721-6.676,37.43-20.368,59.035-24.243c50.154-8.996,109.341,16.678,149.146,46.196
						c18.732,13.892,36.052,29.057,55.982,41.377c25.779,15.937,53.168,28.895,81.511,39.572
						c52.069,19.615,105.558,34.049,160.407,43.282c33.97,5.718,71.329,8.542,101.189,27.296
						c32.86,20.639,72.497,73.658,51.775,114.298c-11.72,22.987-41.395,32.614-65.812,40.731
						c-51.942,17.268-108.192,21.837-158.786,42.844c-23.972,9.953-45.296,24.415-60.363,45.865
						c-12.893,18.354-19.826,40.627-35.507,57.026c-24.09,25.192-61.342,34.817-93.608,44.487
						c-56.882,17.047-114.18,32.682-171.012,49.908c-32.476,9.844-66.131,19.249-96.455,34.814
						c-41.474,21.289-79.294,48.955-120.881,70.231c-38.049,19.467-77.333,38.022-118.002,51.302
						c-76.901,25.113-159.24,27.669-239.444,28.393c-59.269,0.535-118.547-0.591-177.804-1.63c-32-0.561-64.223-0.699-95.613-7.694
						c-30.16-6.722-57.123-19.401-83.393-35.309c-49.728-30.113-104.252-46.358-162.378-48.47
						c-69.717-2.532-139.516-2.16-209.25-5.078c-70.221-2.938-140.386-7.191-210.448-12.757
						c-35.925-2.854-71.823-6.054-107.687-9.596c-33.569-3.315-68.339-4.993-100.786-14.859
						c-26.391-8.024-53.157-24.403-63.299-51.448c-10.48-27.948,8.312-53.676,12.995-80.701
						c10.327-59.595-48.763-89.978-97.938-100.392c-61.385-13.001-125.195-7.458-186.296-21.859
						c-22.692-5.348-70.887-15.928-59.155-48.71c9.699-27.104,37.233-41.294,58.594-57.809
						c18.959-14.658,38.508-33.311,43.237-57.855c4.99-25.901-10.116-44.752-26.544-62.613
						c-5.465-5.942-14.565-14.271-14.182-23.074c0.303-6.97,6.823-13.913,11.32-18.596c13.152-13.697,29.716-23.982,46.131-33.292
						c71.3-40.436,153.631-58.541,233.669-72.403c90.604-15.691,182.298-23.792,273.965-30.158
						c29.919-2.078,59.755-4.764,89.629-7.462C1429.875,2655.459,1430.42,2634.104,1415.779,2634.349z"/>
				</g>
			</g>
			<g style="opacity:0.85;">
				<g>
					<path style="fill:#FFFFFF;" d="M979.81,2895.762c-2.288-0.866-2.329-0.849-0.124,0.05c0.903,0.283,1.807,0.324,2.71,0.121
						c0.94-0.126,1.903-0.365,2.802-0.685c1.038-0.369,2.03-0.866,3.005-1.369c0.168-0.087,2.11-0.91,0.674-0.398
						c0.64-0.228,1.282-0.399,1.933-0.586c0.876-0.169,0.882-0.175,0.018-0.016c0.275-0.018,0.551-0.018,0.826,0.001
						c0.575,0.034,0.369,0.002-0.617-0.095c0.366,0.077,0.726,0.175,1.08,0.294c-1.102-0.258-0.603-0.245,0.23,0.195
						c0.571,0.389,0.615,0.41,0.131,0.062c-0.464-0.365-0.445-0.321,0.058,0.133c0.547,0.616,0.483,0.527-0.192-0.268
						c0.086,0.151,0.171,0.302,0.257,0.453c-0.388-1.012-0.464-1.127-0.229-0.344c-0.178-0.48-0.198-0.958-0.059-1.433
						c0.134-0.65,0.111-0.623-0.068,0.082c0.426-0.939,0.435-1.044,0.025-0.317c0.672-1.017,0.338-0.514-0.32,0.096
						c1.309-1.213,0.04-0.182-0.37,0.069c-1.483,0.905,1.239-0.323-0.277,0.158c-0.666,0.212-1.388,0.372-2.038,0.615
						c-0.62,0.128-0.416,0.11,0.611-0.054c-0.311,0.037-0.623,0.068-0.935,0.093c-0.735,0.063-1.466,0.09-2.203,0.087
						c-1.268-0.005-2.573-0.27-3.831-0.226c1.508,0.216,1.738,0.244,0.69,0.086c-0.873-0.117-1.746-0.235-2.619-0.352
						c3.006,0.601,0.487,0.035-0.176-0.099c-0.274-0.055-2.025-0.633-2.165-0.505c0.156-0.142,2.546,1.219,0.249,0.167
						c-1.827-0.837-3.679-1.892-5.632-2.389c3.169,0.806,1.163,0.49,0.171-0.007c-1.099-0.55-2.379-1.962,0.088,0.376
						c-1.972-1.869-4.179-3.5-6.223-5.288c-1.992,7.543-3.983,15.087-5.975,22.631c6.21-2.188,12.417-4.375,18.763-6.143
						c3.293-0.917,6.697-1.537,9.957-2.549c7.218-2.242,13.137-8.99,11.259-16.798c-2.111-8.776-11.356-11.431-19.396-9.744
						c-3.213,0.674-6.399,1.625-9.546,2.555c-7.341,2.17-14.486,4.796-21.471,7.932c-4.216,1.893-6.706,7.319-6.706,11.691
						c0,5.171,2.746,8.769,6.706,11.692c3.044,2.246,6.602,3.777,10.289,4.624c3.485,0.802,6.964,1.821,10.558,2.034
						c6.3,0.373,13.002-0.587,18.863-2.903c1.074-0.424,2.14-0.871,3.199-1.332c0.403-0.176,2.42-1.085,0.68-0.33
						c1.633-0.709,3.289-1.325,4.793-2.291c3.353-2.153,6.209-5.134,7.387-9.027c2.41-7.968-2.975-15.181-10.28-17.799
						c-3.736-1.339-8.139-0.994-11.792,0.431c-2.306,0.9-4.805,1.931-6.587,3.719c-0.759,0.761-1.909,2.104-2.365,2.965
						c-0.432,0.817-0.685,1.62-0.806,2.527c-0.162,0.602-0.162,1.205,0,1.807c0.202,1.561,0.171,1.203-0.091-1.072
						C973.6,2892.208,976.559,2895.958,979.81,2895.762L979.81,2895.762z"/>
				</g>
			</g>
			<g style="opacity:0.85;">
				<g>
					<path style="fill:#FFFFFF;" d="M1192.154,3083.352c0.362,0.374,0.685,0.801,1.072,1.149c0.6,0.541,1.266,0.798,2.011,1.092
						c0.189,0.075,1.281,0.523,0.403,0.146c-0.545-0.545-1.091-1.091-1.636-1.636c0.902,1.255,1.72,2.068,3.113,2.656
						c0.725,0.306,1.474,0.483,2.223,0.715c0.324,0.1,0.653,0.24,0.983,0.323c0.813,0.203-1.305-0.608-0.396-0.154
						c0.809,0.404,1.638,0.633,2.483,0.915c0.188,0.063,0.373,0.139,0.561,0.203c0.633,0.217-1.545-0.761-0.567-0.221
						c0.379,0.209,0.751,0.475,1.135,0.666c0.553,0.275-1.029-0.946-0.635-0.495c0.143,0.165,0.331,0.326,0.495,0.473
						c0.627,0.561-0.573-0.598-0.525-0.704c-0.003,0.007,0.358,0.638,0.376,0.674c-0.221-0.525-0.443-1.049-0.664-1.574
						c0.13,0.323,0.219,0.636,0.278,0.978c-0.079-0.588-0.158-1.176-0.237-1.764c0.036,0.364,0.029,0.705-0.015,1.068
						c0.079-0.592,0.159-1.185,0.239-1.777c-0.055,0.281-0.125,0.532-0.222,0.802c0.226-0.535,0.452-1.071,0.678-1.606
						c-0.15,0.334-0.323,0.629-0.54,0.924c0.353-0.457,0.706-0.914,1.059-1.37c-0.237,0.282-0.489,0.529-0.772,0.765
						c0.46-0.355,0.92-0.711,1.38-1.066c-0.388,0.292-0.78,0.521-1.221,0.722c0.55-0.232,1.1-0.465,1.651-0.697
						c-0.833,0.343-1.69,0.559-2.579,0.693c0.632-0.085,1.265-0.17,1.897-0.255c-2.482,0.311-5.091,0.111-7.563-0.212
						c0.665,0.089,1.329,0.178,1.994,0.268c-1.285-0.188-2.436-0.495-3.637-0.99c0.613,0.259,1.226,0.517,1.839,0.776
						c-1.179-0.507-2.193-1.104-3.214-1.881c0.562,0.434,1.123,0.867,1.684,1.301c-0.571-0.449-1.12-0.917-1.654-1.41
						c0.459,3.562,0.919,7.123,1.379,10.685c0.565-0.916,1.078-1.836,1.726-2.7c-0.469,0.607-0.938,1.214-1.406,1.82
						c0.929-1.195,1.808-2.423,2.729-3.621c-0.465,0.602-0.93,1.204-1.395,1.805c2.705-3.394,5.704-6.49,4.454-11.316
						c-0.658,2.489-1.316,4.979-1.974,7.468c0.139-0.159,0.275-0.319,0.41-0.48c-0.506,0.391-1.012,0.782-1.518,1.173
						c0.436-0.314,0.887-0.599,1.334-0.896c2.368-1.57,3.697-3.73,3.872-6.606c0.013-0.213,0.036-0.432,0.032-0.646
						c-0.011-0.658-0.137,0.948-0.128,0.882c0.085-0.604,0.13-1.138,0.116-1.739c-0.275,0.663-0.549,1.326-0.824,1.989
						c0.121-0.129,0.235-0.264,0.342-0.405c0.977-1.22,0.934-2.882-0.486-3.773c-0.134-0.093-0.276-0.173-0.425-0.24
						c0.336,0.336,0.673,0.673,1.009,1.009c-0.558-1.251-1.866-2.491-3.043-3.173c-1.859-1.077-4.078-1.448-6.166-0.819
						c-1.097,0.33-2.192,0.914-3.204,1.466c0.597-0.252,1.194-0.504,1.792-0.756c-0.197,0.053-0.39,0.115-0.581,0.186
						c1.972,0.258,3.943,0.516,5.915,0.774c-2.258-1.522-5.394-1.455-7.829-0.464c-0.814,0.331-1.745,0.628-2.493,1.093
						c-0.706,0.439-1.39,1.045-2.03,1.58c-0.411,0.343-0.808,0.702-1.189,1.079c-2.366,2.34-4.146,5.343-5.154,8.516
						c-0.648,2.039-0.274,4.99,0.889,6.794c1.272,1.974,3.006,3.335,5.269,4.052c3.007,0.952,6.217,1.429,9.336,1.82
						c-0.667-0.09-1.335-0.179-2.002-0.269c2.156,0.293,4.302,0.813,6.489,0.857c2.005,0.041,4.13-0.257,6.073-0.678
						c3.694-0.801,7.51-2.984,9.51-6.275c2.515-4.138,1.775-9.504-1.646-12.89c-1.51-1.494-3.27-2.403-5.213-3.175
						c-0.553-0.22-1.109-0.415-1.688-0.56c-0.334-0.083-0.671-0.149-1.009-0.208c-1.469-0.255-2.269-0.223-3.733,0.018
						c0.547-0.073,1.094-0.147,1.641-0.22c-1.355,0.162-2.706,0.27-4.06,0.462c-0.477,0.068-0.905,0.148-1.363,0.293
						c-1.598,0.506-2.406,1.455-3.383,2.739c0.545-0.545,1.091-1.091,1.636-1.636c-1,0.451-2.014,0.869-2.705,1.763
						c-0.412,0.533-0.735,1.072-1.047,1.667C1191.53,3081.975,1191.611,3082.792,1192.154,3083.352L1192.154,3083.352z"/>
				</g>
			</g>
			<g style="opacity:0.85;">
				<g>
					<path style="fill:#FFFFFF;" d="M971.277,2953.077c0.782,0.03,1.512-0.134,2.19-0.49c0.705-0.229,1.314-0.621,1.829-1.175
						c0.554-0.515,0.946-1.125,1.175-1.829c0.356-0.677,0.519-1.407,0.49-2.19c-0.068-0.504-0.135-1.007-0.203-1.511
						c-0.27-0.963-0.757-1.799-1.462-2.508c-0.383-0.296-0.767-0.593-1.15-0.889c-0.886-0.514-1.843-0.773-2.869-0.776
						c-0.783-0.03-1.512,0.134-2.19,0.49c-0.705,0.229-1.314,0.621-1.829,1.175c-0.554,0.515-0.946,1.125-1.175,1.829
						c-0.356,0.677-0.519,1.407-0.49,2.19c0.068,0.504,0.135,1.007,0.203,1.511c0.27,0.963,0.757,1.799,1.462,2.508
						c0.383,0.296,0.767,0.592,1.15,0.889C969.294,2952.815,970.251,2953.074,971.277,2953.077L971.277,2953.077z"/>
				</g>
			</g>
			<g style="opacity:0.85;">
				<g>
					<path style="fill:#FFFFFF;" d="M1904.096,3197.057c12.365,3.701,24.934-2.001,37.491-0.219c1.768,0.251,3.727,0.68,5.34,1.44
						c1.693,0.798,2.258,1.969,3.508,3.145c-0.021-0.02,0.416,0.998,0.373,0.983c0.467,0.169,0.831-2.906,1.192-2.551
						c0.208,0.205-2.663,0.433-2.491,0.424c-3.569,0.197-7.234-0.097-10.807-0.154c-7.048-0.112-14.011-0.564-21.032-1.201
						c-6.594-0.598-13.262-0.703-19.819-1.674c-3.306-0.489-6.519-1.452-9.724-2.383c-1.49-0.433-2.94-0.994-4.425-1.43
						c1.211,0.355-0.787-0.251-0.627-0.308c1.799-0.643-1.617,12.086-1.159,12.479c0.165,0.141-1.974,0.298-0.258,0.118
						c0.519-0.055,1.124-0.286,1.637-0.407c1.797-0.422,3.618-0.773,5.432-1.118c3.179-0.604,6.236-1.109,9.33-1.452
						c7.876-0.874,15.812-1.178,23.732-0.911c3.958,0.134,7.912,0.408,11.851,0.828c0.788,0.084,1.574,0.176,2.361,0.271
						c0.537,0.065,3.674,0.075,1.467,0.206c0.486-0.029,1.406,0.722,0.753,0.081c-2.129-2.091-6.486,1.962-3.103-7.344
						c0.954-1.638,1.909-3.275,2.863-4.913c0.549-0.705,3.864-1.186,1.406-0.885c-0.905,0.111-1.822,0.413-2.716,0.598
						c-1.756,0.364-3.044,0.625-4.754,0.745c-4.609,0.323-8.302,1.017-12.491,3.059c1.262-0.341,2.524-0.682,3.785-1.024
						c-0.823,0.046-1.647,0.078-2.471,0.096c-4.448,0.135-8.213,5.333-5.413,9.434c3.75,5.494,7.537,9.28,14.518,9.765
						c5.522,0.384,12.204-0.272,17.466-1.95c6.657-2.123,10.404-8.348,10.186-15.197c-0.252-7.951-6.425-13.451-13.704-15.41
						c-5.686-1.53-12.177-1.776-18.047-2.14c-6.063-0.375-12.146-0.412-18.213-0.116c-6.092,0.298-12.145,0.984-18.18,1.848
						c-6.08,0.871-13.085,1.541-18.529,4.633c-6.47,3.675-10.334,10.833-8.395,18.305c1.715,6.608,7.601,10.392,13.692,12.372
						c11.381,3.699,25.044,3.482,36.872,2.592c5.343-0.402,10.658-1.191,16.003-1.601c6.455-0.495,12.948-0.362,19.414-0.687
						c4.826-0.242,9.894-0.928,13.54-4.447c4.251-4.103,4.563-10.372,2.208-15.518c-4.439-9.696-14.841-13.226-24.795-13.779
						c-5.354-0.297-10.715,0.338-16.022,0.965c-7.21,0.852-14.025,1.407-20.473,5.008
						C1898.901,3189.845,1899.941,3195.813,1904.096,3197.057L1904.096,3197.057z"/>
				</g>
			</g>
			<g style="opacity:0.85;">
				<g>
					<path style="fill:#FFFFFF;" d="M3019.282,2966.201c4.809,4.329,9.736,0.772,15.042-0.01c-1.51,0.223,0.749-0.059,1.054-0.083
						c1.073-0.085,2.15-0.126,3.226-0.16c1.905-0.06,3.802-0.041,5.702,0.109c0.545,0.042,1.089,0.094,1.632,0.156
						c-1.13-0.162-1.152-0.159-0.066,0.01c0.749,0.153,1.503,0.271,2.247,0.45c0.668,0.16,2.114,0.326,2.625,0.803
						c-1.293-0.564-1.466-0.604-0.518-0.117c0.903,0.596,0.764,0.454-0.415-0.425c1.38,1.281-0.874-1.864,0.057-0.016
						c-0.518-0.819-0.749-1.715-0.693-2.688c-0.01,1.116,0.068,0.83,0.236-0.859c-0.086,0.418-0.203,0.827-0.352,1.228
						c0.167-0.42,0.335-0.841,0.502-1.261c-0.568,0.945-0.417,0.794,0.454-0.454c-0.382,0.265-0.732,0.567-1.049,0.907
						c-0.319,0.343-0.653,0.67-1.002,0.982c-0.713,0.6-0.712,0.609,0.004,0.027c0.729-0.553,0.717-0.573-0.037-0.057
						c-0.415,0.252-0.84,0.489-1.273,0.708c-0.459,0.237-0.925,0.459-1.397,0.669c1.447-0.6,1.611-0.689,0.491-0.267
						c-0.729,0.222-1.439,0.444-2.176,0.64c-1.248,0.202-0.997,0.175,0.751-0.083c-0.495,0.051-0.991,0.091-1.487,0.118
						c-0.879,0.049-1.76,0.06-2.64,0.041c-1.927-0.041-3.857-0.066-5.778-0.244c-0.391-0.035-0.781-0.076-1.17-0.123
						c-0.947-0.112-0.522-0.054,1.275,0.173c-0.426-0.406-2.498-0.432-3.114-0.558c-1.832-0.374-3.651-0.819-5.455-1.31
						c-3.867-1.052-7.638-2.386-11.441-3.638c1.018,7.791,2.036,15.582,3.055,23.372c5.085-3.677,10.498-6.786,15.685-10.289
						c1.823-1.23,3.643-2.651,5.139-4.271c1.563-1.692,2.657-3.484,3.368-5.651c-2.106,3.429-2.403,4.108-0.891,2.037
						c0.951-1.04,1.594-2.26,1.927-3.661c1.056-2.55,2.21-5.044,1.532-7.87c-0.44,1.665-0.88,3.33-1.32,4.994
						c1.343-1.725,2.723-3.779,1.723-6.044c-0.927-2.098-3.234-2.73-5.353-2.719c1.21,0.501,2.42,1.002,3.63,1.503
						c-1.781-2.096-5.13-2.681-7.73-3.107c-0.954-0.128-1.908-0.256-2.862-0.385c-1.045,0.04-1.019,0.123,0.078,0.249
						c1.904,0.353,1.115,0.264-2.364-0.267c-1.069,0.144-2.138,0.287-3.207,0.431c-2.287,0.4-4.698,1.379-6.707,2.457
						c-5.467,2.932-10.603,6.793-15.557,10.509c-4.234,3.176-6.851,7.188-6.105,12.741c0.684,5.091,4.241,9.107,9.16,10.631
						c16.35,5.066,34.885,8.024,50.279-1.458c1.947-1.199,3.874-2.651,5.452-4.314c0.995-1.049,2.071-2.258,2.764-3.532
						c0.179-0.425,0.358-0.849,0.537-1.273c0.713-1.698,0.717-1.698,0.01,0.001c0.278-0.248,0.471-0.861,0.63-1.196
						c2.562-5.401,3.086-11.372,0.106-16.763c-4.813-8.708-15.87-10.037-24.822-9.1c-5.552,0.581-10.514,1.905-15.623,4.127
						c-0.367,0.16-0.734,0.321-1.099,0.485c1.15-0.516-1.47,0.641-1.323,0.579c-1.352,0.57-2.717,1.083-3.883,1.984
						C3017.535,2957.548,3015.776,2963.045,3019.282,2966.201L3019.282,2966.201z"/>
				</g>
			</g>
			<g style="opacity:0.85;">
				<g>
					<path style="fill:#FFFFFF;" d="M3108.15,2954.538c0.053,0.066,0.113,0.127,0.177,0.182c0.317,0.271,0.645,0.541,1,0.763
						c-0.618-0.803-1.236-1.607-1.854-2.41c0.003,0.015,0.007,0.031,0.01,0.046c0.141,0.595,0.414,1.113,0.818,1.554
						c0.322,0.498,0.75,0.89,1.282,1.177c0.525,0.334,1.091,0.515,1.699,0.542c0.607,0.136,1.215,0.109,1.823-0.082
						c0.364-0.154,0.728-0.307,1.092-0.461c0.687-0.406,1.233-0.953,1.639-1.64c0.154-0.364,0.307-0.728,0.461-1.092
						c0.218-0.81,0.218-1.62,0-2.43c-0.001-0.005-0.002-0.01-0.004-0.015c0,0.79,0,1.579,0,2.368c0.008-0.025,0.015-0.05,0.02-0.075
						c0.003-0.013,0.005-0.027,0.007-0.04c0.02-0.113,0.149-1.05,0.156-1.165c0-0.005,0.001-0.011,0.001-0.016
						c0.001-0.024,0-0.047-0.001-0.071c0-0.006-0.001-0.012-0.002-0.019c-0.007-0.077-0.136-1.058-0.152-1.129
						c-0.003-0.011-0.005-0.023-0.008-0.034c-0.129-0.542-0.377-1.014-0.745-1.416c-0.293-0.453-0.683-0.811-1.168-1.073
						c-0.332-0.14-0.663-0.28-0.995-0.42c-0.738-0.198-1.476-0.198-2.214,0c-0.014,0.003-0.028,0.006-0.043,0.008
						c0.373-0.05,0.745-0.1,1.118-0.15c-0.038,0.005-0.075,0.003-0.113-0.002c0.383,0.052,0.766,0.103,1.149,0.154
						c-0.042-0.006-0.083-0.018-0.123-0.032c0.887,0.682,1.774,1.365,2.662,2.047c-0.003-0.004-0.005-0.009-0.008-0.013
						c-0.238-0.308-0.476-0.617-0.715-0.925c-0.414-0.446-0.904-0.761-1.471-0.945c-0.356-0.207-0.741-0.311-1.153-0.312
						c-0.608-0.136-1.215-0.109-1.823,0.082c-0.364,0.154-0.728,0.307-1.092,0.461c-0.308,0.238-0.617,0.477-0.925,0.715
						c-0.446,0.414-0.761,0.904-0.945,1.471c-0.286,0.545-0.417,1.132-0.394,1.761c0.003,0.032,0.006,0.064,0.009,0.096
						c0.666-1.161,1.332-2.322,1.998-3.483c-0.097,0.07-0.2,0.131-0.31,0.178c0.302-0.127,0.604-0.255,0.906-0.382
						c-0.047,0.02-0.095,0.037-0.144,0.052c-0.626,0.176-1.169,0.492-1.63,0.95c-0.458,0.461-0.774,1.004-0.95,1.63
						c-0.176,0.655-0.176,1.309,0,1.964C3107.376,2953.534,3107.692,2954.077,3108.15,2954.538L3108.15,2954.538z"/>
				</g>
			</g>
			<g style="opacity:0.85;">
				<g>
					<path style="fill:#FFFFFF;" d="M2352.451,3254.513c5.001,8.789,17.333,7.768,25.919,7.271
						c11.229-0.65,22.412-1.843,33.545-3.433c22.332-3.189,44.379-8.363,65.81-15.403c42.738-14.038,82.358-35.375,114.539-67.093
						c1.416-1.396-0.402-3.789-2.13-2.761c-35.311,21.005-72.448,40.325-111.385,53.704c-19.335,6.644-39.193,11.761-59.336,15.267
						c-10.107,1.759-20.277,3.077-30.498,3.958c-4.92,0.424-9.842,0.679-14.77,0.98c-2.808,0.172-5.676,0.252-8.455,0.701
						c-1.241,0.201-4.207,1.449-5.234,0.63C2356.16,3244.904,2349.392,3249.137,2352.451,3254.513L2352.451,3254.513z"/>
				</g>
			</g>
			<g style="opacity:0.85;">
				<g>
					<path style="fill:#FFFFFF;" d="M2303.772,3294.194c4.276,4.021,11.363,5.061,16.932,6.122
						c6.634,1.264,13.355,2.183,20.068,2.904c13.229,1.42,26.253-0.056,39.352-1.978c1.631-0.239,1.133-2.693-0.374-2.762
						c-12.805-0.584-25.513-2.541-38.272-3.697c-6.229-0.564-12.415-1.392-18.586-2.404c-5.663-0.929-12.63-3.02-18.267-1.417
						C2303.262,3291.35,2302.696,3293.182,2303.772,3294.194L2303.772,3294.194z"/>
				</g>
			</g>
			<g style="opacity:0.85;">
				<g>
					<path style="fill:#FFFFFF;" d="M1174.435,2765.59c-1.627,2.327-1.509,4.473-0.338,6.331c6.143-0.684,12.312-1.144,18.498-1.189
						L1174.435,2765.59z"/>
				</g>
				<g>
					<path style="fill:#FFFFFF;" d="M3031.379,2839.968c-11.385-31.293-38.588-50.997-67.063-65.317
						c-110.102-55.369-240.504-40.341-363.535-33.153c-109.523,6.398-219.472,5.491-328.875-2.712
						c-92.052-6.903-183.681-18.961-275.808-24.783c-268.297-16.955-537.042,19.147-802.072,64.203
						c-7.071,1.202-16.971-1.592-19.93-6.285c-24.616,2.744-48.672,10.443-70.302,22.524c-18.03,10.071-25.443,31.299-19.779,50.149
						c-0.264,1.996-0.326,2.445-0.164,1.184c-0.136,0.846-0.273,1.692-0.44,2.533c-0.444,2.235-0.926,4.489-1.602,6.665
						c-0.208,0.671-0.45,1.33-0.686,1.991c-1.286,2.293-2.626,4.554-4.066,6.757h0c-28.113,18.334-54.174,47.72-35.641,74.702
						c3.704,5.392,8.871,9.654,14.595,12.823c29.124,16.12,63.273,15.555,95.493,21.797c29.541,5.724,60.909,20.329,71.286,48.573
						c4.131,11.244,4.568,23.853,10.525,34.246c18.458,32.2,66.318,18.687,103.434,18.596
						c74.157-0.183,129.389,68.984,200.175,91.091c79.196,24.734,162.82-12.441,245.118-22.965
						c118.88-15.2,236.653,25.883,354.364,48.421c156.483,29.963,331.025,23.21,458.253-72.695
						c38.569-29.073,73.126-66.341,119.253-80.664c41.593-12.916,88.46-5.562,127.848-24.145
						c33.208-15.668,56.202-47.619,88.556-64.982c35.991-19.314,85.201-22.424,101.225-62.803
						C3037.337,2871.11,3036.753,2854.738,3031.379,2839.968z"/>
				</g>
			</g>
			<g>
				<g>
					<path style="fill:#39D4FF;" d="M1077.762,2904.678c-0.106-0.022-0.212-0.044-0.319-0.067c0.239,0.032,0.478,0.064,0.717,0.096
						c0.208,0,1.113-0.112,0.402-0.039c0.544-0.056,1.004-0.153,1.507-0.34c0.907-0.337,1.915-0.551,2.701-1.123
						c1.219-0.886,2.49-1.704,3.793-2.46c1.271-0.737,2.579-1.413,3.915-2.025c0.335-0.153,0.679-0.289,1.011-0.448
						c-0.196,0.083-0.391,0.165-0.587,0.248c0.126-0.052,0.252-0.104,0.379-0.155c0.169-0.068,0.338-0.135,0.508-0.201
						c0.723-0.282,1.46-0.51,2.205-0.726c-2.042-1.555-4.083-3.111-6.125-4.666c0.054,0.653,0.057,1.302,0.011,1.956
						c0.06-0.446,0.12-0.891,0.18-1.337c-0.073,0.346-0.208,0.673-0.34,1c0.18-0.426,0.359-0.852,0.539-1.278
						c-0.433,1.02-1.002,1.957-1.676,2.835c0.336-0.435,0.672-0.869,1.008-1.304c-0.646,0.814-1.174,1.547-1.698,2.404
						c-0.267,0.437-0.56,0.857-0.869,1.266c0.356-0.461,0.712-0.922,1.068-1.383c-0.486,0.625-1.009,1.24-1.609,1.759
						c0.479-0.37,0.959-0.74,1.438-1.111c-0.964,0.537-1.734,1.005-2.619,1.79c-0.383,0.34-0.755,0.685-1.158,1.002
						c0.507-0.391,1.013-0.783,1.519-1.174c-0.928,0.708-1.922,1.297-2.994,1.757c0.599-0.253,1.198-0.505,1.797-0.758
						c-0.945,0.386-1.915,0.659-2.925,0.811c0.668-0.09,1.336-0.179,2.003-0.269c-0.719,0.094-1.425,0.129-2.147,0.044
						c0.669,0.09,1.337,0.18,2.006,0.269c-0.424-0.065-0.828-0.165-1.23-0.318c0.601,0.254,1.203,0.508,1.804,0.761
						c-0.249-0.11-0.478-0.233-0.703-0.386c0.51,0.394,1.019,0.787,1.529,1.181c-0.208-0.163-0.381-0.333-0.545-0.541
						c0.394,0.51,0.788,1.02,1.182,1.53c-0.032-0.055-0.065-0.11-0.097-0.166c0.254,0.603,0.509,1.205,0.763,1.808
						c-0.079-0.19-0.131-0.361-0.173-0.562c0.091,0.676,0.182,1.352,0.272,2.027c-0.028-0.174-0.034-0.348-0.019-0.523
						c-0.091,0.68-0.183,1.361-0.274,2.041c0.037-0.271,0.093-0.501,0.181-0.76c-0.261,0.617-0.521,1.235-0.782,1.852
						c0.351-0.825,0.86-1.603,1.358-2.347c0.224-0.334,0.483-0.65,0.692-0.993c0.256-0.42,0.392-0.897,0.677-1.302
						c-0.391,0.506-0.782,1.012-1.173,1.518c0.468-0.548,0.967-1.062,1.453-1.594c1.206-1.32,1.771-2.735,2.306-4.412
						c0.336-1.054,0.482-2.132,0.714-3.21c0.3-1.398,0.097-2.673-0.782-3.811c-0.908-1.175-2.003-1.546-3.433-1.723
						c-1.702-0.21-3.274-0.14-4.973,0.269c-1.762,0.424-3.333,1.17-4.626,2.474c-0.506,0.511-0.948,1.082-1.454,1.591
						c0.508-0.392,1.015-0.784,1.523-1.176c-0.941,0.699-1.984,1.33-2.719,2.251c-0.745,0.933-1.501,1.895-2.173,2.889
						c-0.684,1.011-1.196,2.159-1.504,3.339c-0.437,1.671-0.538,3.737-0.045,5.401c0.764,2.575,2.383,4.686,4.661,6.105
						c1.813,1.13,4.121,1.604,6.228,1.657c3.119,0.078,6.265-0.941,9.007-2.345c1.408-0.721,2.666-1.73,3.884-2.724
						c0.397-0.324,0.779-0.662,1.117-1.046c1.159-1.317,1.667-2.56,2.309-4.203c-0.239,0.566-0.478,1.132-0.716,1.697
						c1.427-2.347,2.707-4.914,2.921-7.691c0.163-2.115-0.337-4.177-0.803-6.218c0.06,0.446,0.12,0.891,0.18,1.337
						c-0.135-1.098-0.263-2.178-0.565-3.242c-0.889-3.13-4.335-4.317-7.108-2.892c-2.818,1.448-5.563,2.992-8.11,4.884
						c-1.461,1.086-2.885,2.22-4.239,3.438c-0.759,0.683-1.191,1.573-1.649,2.467c-0.238,0.464-0.493,0.943-0.63,1.447
						c-0.104,0.864-0.135,1.076-0.093,0.635c0.028-0.29,0.017-0.228-0.033,0.188c-0.037,0.273-0.02,0.475-0.036,0.739
						C1075.402,2903.609,1076.585,2904.703,1077.762,2904.678L1077.762,2904.678z"/>
				</g>
			</g>
			<g>
				<g>
					<path style="fill:#39D4FF;" d="M1084.459,2900.301c0.054,0.026,0.108,0.051,0.162,0.077c1.125,0.529,1.719,0.817,2.992,0.817
						c1.307,0,2.275-0.464,3.426-1.015c0.467-0.223,0.957-0.424,1.403-0.686c0.422-0.326,0.845-0.653,1.267-0.979
						c0.357-0.445,0.704-0.896,1.043-1.354c0.064-0.087,0.129-0.173,0.193-0.26c0.469-0.631,0.726-1.023,0.984-1.937
						c0.31-1.101,0.305-2.231-0.014-3.329c-0.016-0.055-0.033-0.11-0.051-0.164c-0.171-0.406-0.343-0.812-0.514-1.218
						c-0.453-0.766-1.063-1.375-1.829-1.829c-1.436-0.942-3.454-1.304-5.094-0.682c-0.237,0.09-0.473,0.178-0.71,0.269
						c-1.242,0.474-1.896,0.717-2.864,1.649c-0.085,0.082-0.16,0.161-0.238,0.25c-0.33,0.375-0.663,0.748-0.991,1.124
						c-0.718,0.825-1.399,1.66-1.649,2.76c-0.07,0.518-0.139,1.036-0.209,1.554c0.057,0.535,0.129,1.067,0.216,1.597
						c0.007,0.042,0.013,0.085,0.021,0.128c0.074,0.47,0.255,0.908,0.544,1.316
						C1083.021,2899.19,1083.658,2899.827,1084.459,2900.301L1084.459,2900.301z"/>
				</g>
			</g>
			<g>
				<g>
					<path style="fill:#39D4FF;" d="M1288.484,3028.614c-1.444,5.194-0.131,10.868,4.797,13.678
						c5.112,2.915,10.981,1.875,16.55,1.455c10.866-0.819,22.063-0.993,32.551,2.359c5.529,1.767,10.646,5.185,16.703,3.745
						c5.63-1.338,10.196-6.157,9.91-12.181c-0.305-6.401-5.202-10.291-10.415-13.026c-5.181-2.718-10.116-5.422-15.646-7.483
						c-10.378-3.868-21.828-6.468-32.953-6.296c-11.194,0.173-25.898,5.101-28.652,17.575c-1.798,8.143,2.624,16.463,10.291,19.698
						c5.813,2.453,11.641,2.026,17.787,1.61c5.302-0.359,10.557-1.251,15.861-1.641c2.228-0.164,4.459-0.346,6.693-0.396
						c1.285-0.029,2.561,0.028,3.844,0.037c1.19,0.009,0.205-0.097-0.068-0.122c0.709,0.064,1.434,0.232,2.131,0.374
						c1.402,0.287,2.756,0.703,4.129,1.101c-0.029-0.009,1.594,0.595,0.762,0.25c-0.641-0.266,1.024,0.521,1.194,0.612
						c2.393,1.277,4.355,3.192,6.745,4.45c7.866,4.144,17.509,0.608,20.108-8.135c2.02-6.794-0.957-13.501-5.495-18.496
						c-4.495-4.948-10.708-10.261-17.665-10.087c-5.099,0.127-8.801,5.823-5.97,10.404c1.411,2.284,2.713,3.789,4.921,5.407
						c1.043,0.765,2.104,1.468,3.082,2.318c1.32,1.146,2.723,2.4,3.814,3.776c2.459,3.102-0.583,0.93,1.76-1.358
						c0.577-0.279,1.153-0.558,1.73-0.837c1.183-1.041,2.453-1.129,3.81-0.265c-0.248-0.021-1.421-0.838-0.613-0.307
						c-1.918-1.262-3.564-2.904-5.525-4.122c-3.28-2.036-7.04-3.544-10.765-4.539c-7.107-1.897-14.637-2.601-21.973-2.388
						c-3.529,0.102-7.084,0.228-10.603,0.515c-1.697,0.138-3.392,0.365-5.086,0.543c-1.001,0.105-2.002,0.223-3.006,0.303
						c-0.442,0.035-3.469,0.132-2.517,0.199c0.126,0.028,0.253,0.057,0.379,0.085c-1.396-0.393-1.483-0.38-0.262,0.038
						c0.747,1.692,0.793-1.482,2.079,2.929c1.154,3.959-0.521,2.09-0.193,3.819c-0.164,0.206-0.327,0.413-0.491,0.619
						c0.342-0.383,0.707-0.741,1.095-1.076c1.289-1.167-1.964,1.055,0.652-0.367c0.29-0.157,1.826-0.909,0.171-0.214
						c1.581-0.664,3.3-1.038,4.978-1.351c-1.821,0.339,0.396-0.035,0.868-0.072c0.704-0.054,1.409-0.09,2.115-0.113
						c1.642-0.052,3.283-0.023,4.924,0.045c3.71,0.155,7.813,0.507,11.17,0.994c7.39,1.073,14.922,3.044,21.961,5.527
						c1.175,0.414,2.237,1.105,3.322,1.572c1.474,0.634-0.086,2.653-0.166-1.676c0.591-1.104,1.182-2.209,1.773-3.313
						c0.089-0.045,0.178-0.09,0.268-0.135c-0.269-0.512,1.105,0.601-0.352-0.325c-0.719-0.457-1.888-0.696-2.687-1.018
						c-1.921-0.773-3.828-1.537-5.811-2.142c-8.695-2.652-18.042-3.274-27.086-3c-4.26,0.129-8.512,0.469-12.757,0.838
						c-1.845,0.16-4.018,0.646-5.847,0.292c-0.375-0.073-1.222-0.381-1.288-0.407c-2.186-0.854-0.68-1.541-0.333,1.166
						C1298.456,3024.354,1290.265,3022.208,1288.484,3028.614L1288.484,3028.614z"/>
				</g>
			</g>
			<g>
				<g>
					<path style="fill:#39D4FF;" d="M2966.822,2827.714c1.198,2.028,2.607,3.932,3.902,5.904c-0.047-0.072,3.003,3.782,3.225,3.58
						c-0.031,0.028-1.006-2.736-0.271-0.408c0.443,1.401,0.958,2.807,1.691,4.084c1.283,2.235,2.695,4.386,3.941,6.65
						c0.946,1.718,0.106,0.207-0.023-0.206c0.211,0.677,0.414,1.353,0.594,2.038c0.405,1.536,0.947,3.003,1.417,4.518
						c0.207,0.668,0.346,1.368,0.563,2.032c0.075,0.344,0.15,0.689,0.224,1.033c-0.139-1.366-0.16-1.357-0.062,0.026
						c0.429,0.152-0.715,2.7,0.141-0.005c-0.031,0.098-0.262,1.434-0.464,1.572c0.167-0.443,0.335-0.887,0.502-1.33
						c-0.57,0.88-0.564,0.935,0.018,0.165c0.723-1.741-0.076,0.778-0.705,0.639c0.016,0.004,2.046-1.257,0.431-0.393
						c-2.284,1.22,2.135-0.61-0.151,0.078c-2.548,0.767,2.586,0.171-0.061-0.06c0.262,0.042,0.524,0.084,0.786,0.127
						c1.053,0.184,1.049,0.168-0.013-0.046c-0.262-0.076-0.525-0.151-0.787-0.227c0.454,0.203,0.909,0.407,1.363,0.61
						c-0.243-0.126-0.486-0.251-0.728-0.377c-1.101-0.706-0.954-0.543,0.443,0.489c-0.176,0.04-1.117-1.14-1.165-1.15
						c1.235,0.262,1.09,1.902,0.491,0.473c1.138,2.714,0.28,0.722,0.08-0.052c-0.127-0.458-0.227-0.923-0.298-1.393
						c0.226,1.709,0.284,1.851,0.174,0.425c0.427-7.641,0.323-15.646-3.396-22.539c-3.151-5.839-8.785-10.466-13.6-14.908
						c-1.219-1.125,1.251,2.602,0.069,0.102c-0.823-1.741-0.426,0.626,0.156,0.717c0.427,0.067-1.584-3.45-0.287-0.758
						c0.053,0.326,0.106,0.652,0.159,0.978c0.003-0.489,0.039-0.975,0.106-1.458c0.021,0.217-0.666,3.549-0.049,1.471
						c-0.954,3.216-1.051,2.149-0.462,1.28c-0.432,0.54-0.864,1.08-1.295,1.62c1.001-0.992,0.6-0.727-1.202,0.795
						c-0.685,0.268-1.369,0.536-2.054,0.804c2.288-0.552,0.827-0.603-4.382-0.154c0.821,0.152,2.319,0.935-0.875-0.402
						c2.546,1.066-1.443-1.452-0.291-0.241c0.99,1.041,2.124,1.98,3.165,2.972c2.412,2.298,4.798,4.627,7.054,7.079
						c0.563,0.611,1.116,1.231,1.66,1.858c0.273,0.315,2.539,2.869,1.123,1.277c-1.482-1.666,0.571,0.782,0.704,0.968
						c0.576,0.809,1.135,1.632,1.665,2.473c0.955,1.514,1.727,3.101,2.558,4.683c0.934,1.779-1.016-3.237-0.113-0.198
						c0.275,0.927,0.619,1.83,0.872,2.765c0.167,0.621,0.292,1.249,0.449,1.873c0.743,2.956-0.03-2.73,0.054,0.079
						c0.024,0.793,0.092,1.58,0.088,2.375c0.003,0.475-0.01,0.949-0.041,1.423c-0.138,1.556-0.082,1.262,0.17-0.881
						c0.84,0.408-2.773,6.585-0.116,1.629c-1.279,2.386,1.925-1.836,0.649-0.622c-1.423,1.409-0.097,0.684,3.976-2.174
						c1.544-0.414,3.087-0.415,4.63-0.003c-6.752-1.476-13.49,1.47-16.231,7.966c-2.453,5.813-0.589,14.273,5.629,17.181
						c7.693,3.598,15.912,2.786,21.98-3.518c4.744-4.928,6.383-11.582,7.076-18.162c1.062-10.092-2.575-20.967-8.086-29.329
						c-5.267-7.992-12.188-14.981-19.419-21.211c-5.758-4.96-12.471-8.172-20.246-6.407c-5.697,1.293-10.639,5.476-13.278,10.637
						c-6.011,11.757-0.15,23.78,9.089,31.759c1.515,1.308,3.086,2.549,4.557,3.907c0.666,0.615,1.259,1.366,1.95,1.944
						c1.116,0.933-0.577-0.855-0.554-0.84c0.556,0.37,0.829,1.389,1.199,1.91c0.851,1.197-0.547-0.85-0.353-0.908
						c0.028-0.008,0.367,1.291,0.39,1.384c0.022,0.094,0.288,1.409,0.283,1.41c-0.2,0.013-0.132-2.48-0.196-0.944
						c-0.094,2.25,0.081,4.62,0.177,6.876c0.256,5.994,1.47,11.928,5.2,16.757c3.437,4.448,8.139,7.872,13.707,9.154
						c12.201,2.808,23.993-4.176,28.163-15.786c2.086-5.807,1.212-12.606-0.901-18.279c-1.185-3.182-2.543-5.711-4.585-8.354
						c-1.825-2.362-0.538-0.782-0.189-0.279c-0.331-0.477-0.676-0.943-1.022-1.408c-1.038-1.396-2.121-2.811-3.265-4.131
						c-1.661-1.916-3.855-4.075-6.053-5.295c-1.231-0.683-2.659-1.291-4.041-1.644c-0.007-0.002-1.178-0.407-0.545-0.121
						c0.516,0.233-0.75-0.519-0.886-0.604c-3.988-2.503-9.347-3.226-13.958-2.249
						C2966.694,2823.258,2965.778,2825.947,2966.822,2827.714L2966.822,2827.714z"/>
				</g>
			</g>
			<g>
				<g>
					<path style="fill:#39D4FF;" d="M2908.948,2789.109c0.173,0.149,0.335,0.311,0.486,0.484c-0.212-0.275-0.425-0.55-0.637-0.824
						c0.006,0.013,0.013,0.027,0.019,0.041c0.62,1.318,2.304,2.146,3.706,2.126c0.277-0.004,0.554-0.008,0.832-0.012
						c-1.074-0.445-2.148-0.89-3.222-1.335c0.821,0.728,1.691,1.49,2.798,1.742c0.61,0.139,1.257,0.186,1.88,0.177
						c-1.809-1.377-3.617-2.754-5.426-4.131c0.097,0.268,0.163,0.536,0.205,0.818c-0.07-0.522-0.14-1.044-0.21-1.567
						c0.084,0.726,0.188,1.452,0.297,2.176c-0.072-0.534-0.143-1.068-0.215-1.602c0.043,0.364,0.04,0.722-0.001,1.085
						c0.073-0.548,0.147-1.096,0.221-1.645c-0.063,0.45-0.185,0.879-0.356,1.3c0.215-0.509,0.429-1.017,0.644-1.525
						c-0.15,0.347-0.324,0.67-0.555,0.971c0.343-0.443,0.685-0.887,1.028-1.33c-0.286,0.356-0.606,0.674-0.962,0.96
						c0.464-0.358,0.927-0.716,1.391-1.075c-0.357,0.274-0.737,0.501-1.149,0.684c0.571-0.241,1.141-0.482,1.712-0.723
						c-0.372,0.154-0.752,0.259-1.151,0.317c0.658-0.088,1.317-0.177,1.975-0.265c-0.946,0.108-1.885,0.265-2.826,0.397
						c0.665-0.089,1.329-0.178,1.994-0.268c-0.295,0.032-0.583,0.033-0.879,0.006c1.262,0.341,2.524,0.683,3.785,1.024
						c-0.495-0.274-0.985-0.556-1.461-0.861c0.506,0.391,1.012,0.782,1.518,1.173c-0.783-0.638-1.513-1.33-2.139-2.125
						c0.409,0.529,0.818,1.059,1.227,1.588c-0.398-0.525-0.733-1.08-0.995-1.685c0.271,0.643,0.542,1.285,0.814,1.928
						c-0.173-0.43-0.308-0.868-0.38-1.327c0.098,0.729,0.196,1.458,0.294,2.188c-0.071-0.571-0.064-1.169,0.01-1.74
						c-0.099,0.74-0.199,1.479-0.298,2.218c0.071-0.448,0.191-0.876,0.365-1.295c-0.281,0.667-0.563,1.334-0.845,2.002
						c0.162-0.363,0.358-0.7,0.599-1.016c-0.438,0.567-0.877,1.135-1.315,1.702c0.188-0.233,0.391-0.44,0.623-0.63
						c-0.569,0.439-1.138,0.879-1.707,1.319c0.234-0.178,0.476-0.323,0.745-0.442c-0.673,0.284-1.346,0.568-2.02,0.852
						c0.237-0.093,0.474-0.156,0.726-0.196c-0.751,0.101-1.502,0.202-2.253,0.303c0.131-0.014,0.258-0.023,0.39-0.025
						c-2-0.828-4-1.656-5.999-2.485c0.429,0.498,0.851,1,1.256,1.517c-0.445-0.576-0.89-1.151-1.334-1.727
						c0.686,0.891,1.306,1.825,1.749,2.862c-0.29-0.687-0.579-1.373-0.869-2.059c0.214,0.534,0.372,1.076,0.462,1.644
						c-0.103-0.768-0.206-1.535-0.309-2.303c0.056,0.436,0.076,0.87,0.031,1.307c0.104-0.771,0.207-1.542,0.311-2.312
						c-0.052,0.367-0.152,0.712-0.296,1.054c0.293-0.695,0.586-1.39,0.88-2.084c-0.119,0.254-0.266,0.485-0.432,0.711
						c0.457-0.592,0.915-1.184,1.372-1.776c-0.258,0.331-0.548,0.623-0.876,0.886c0.598-0.462,1.196-0.924,1.793-1.385
						c-0.326,0.246-0.671,0.448-1.048,0.608c0.712-0.3,1.425-0.601,2.136-0.902c-0.284,0.109-0.566,0.186-0.867,0.23
						c0.798-0.107,1.596-0.214,2.394-0.322c-0.249,0.026-0.49,0.026-0.739-0.004c0.802,0.108,1.605,0.216,2.407,0.323
						c-0.959-0.162-1.923-0.291-2.889-0.42c0.803,0.108,1.607,0.216,2.41,0.324c-0.208-0.034-0.402-0.087-0.598-0.165
						c0.715,0.302,1.43,0.603,2.145,0.905c-0.123-0.056-0.236-0.116-0.352-0.184c1.473,2.568,2.946,5.136,4.419,7.704
						c-0.018-0.18-0.018-0.349,0.002-0.529c-0.105,0.784-0.211,1.568-0.316,2.352c0.302-1.698,0.652-3.328,0.093-5.056
						c-0.255-0.788-0.668-1.545-1.003-2.298c0.279,0.662,0.559,1.323,0.838,1.985c-0.004-0.024-0.009-0.048-0.013-0.071
						c0.098,0.727,0.196,1.454,0.293,2.18c-0.017-0.143-0.024-0.281-0.013-0.424c-0.091,0.679-0.182,1.358-0.274,2.038
						c0.004-0.032,0.009-0.065,0.013-0.097c0.315-1.005,0.36-2.01,0.135-3.014c-0.046-1.006-0.345-1.943-0.897-2.81
						c-0.394-0.51-0.788-1.02-1.182-1.53c-0.943-0.937-2.055-1.585-3.335-1.944c-0.859-0.344-1.828-0.358-2.74-0.428
						c0.736,0.099,1.473,0.198,2.209,0.297c-0.802-0.176-1.626-0.331-2.442-0.334c-1.701-0.006-2.148,0.205-3.45,0.754
						c-0.35,0.148-0.7,0.295-1.05,0.443c-1.024,0.552-1.846,1.307-2.466,2.264c-0.81,1.049-0.812,1.058-1.33,2.285
						c-0.53,1.256-0.573,1.393-0.756,2.751c-0.053,0.395-0.106,0.791-0.159,1.186c-0.046,1.228,0.21,2.374,0.768,3.438
						c0.54,1.279,0.722,1.762,1.891,2.92c0.629,0.624,1.564,1.316,2.157,1.707c0.14,0.092,0.277,0.174,0.427,0.249
						c0.564,0.282,1.678,0.798,2.281,0.958c0.805,0.108,1.61,0.216,2.414,0.324c0.08,0.011,0.16,0.02,0.241,0.024
						c0.165,0.009,0.326-0.005,0.49-0.02c0.903-0.083,1.882-0.161,2.764-0.395c1.073-0.285,2.138-0.735,3.085-1.317
						c0.754-0.464,1.447-1.068,2.135-1.62c0.141-0.113,0.281-0.226,0.411-0.352c0.804-0.775,1.481-1.706,2.082-2.641
						c0.59-0.917,0.968-2.013,1.344-3.02c0.065-0.173,0.125-0.344,0.169-0.524c0.226-0.908,0.336-1.924,0.403-2.854
						c0.083-1.159-0.169-2.388-0.371-3.51c-0.092-0.51-0.243-0.993-0.435-1.474c-0.423-1.058-0.833-2.156-1.422-3.14
						c-0.614-1.025-1.415-1.977-2.141-2.904c-0.623-0.796-1.292-1.564-2.007-2.279c-2.354-2.357-5.707-2.892-8.827-2.095
						c-0.487,0.125-0.987,0.381-1.426,0.566c-0.512,0.216-1.033,0.393-1.499,0.692c-0.681,0.437-1.4,1.008-2.006,1.544
						c-0.142,0.126-0.278,0.255-0.401,0.399c-0.676,0.784-1.413,1.626-1.885,2.564c-1.048,2.082-1.509,3.824-1.665,6.156
						c-0.145,2.18,0.568,4.202,1.512,6.117c0.476,0.965,1.279,1.871,1.918,2.672c0.306,0.384,0.641,0.737,1.012,1.06
						c1.191,1.034,2.474,2.009,3.878,2.741c0.405,0.211,0.792,0.442,1.186,0.673c0.195,0.114,0.389,0.229,0.588,0.335
						c0.565,0.304,1.326,0.639,1.938,0.837c0.188,0.061,1.552,0.258,2.249,0.287c0.948,0.04,1.94-0.156,2.86-0.332
						c0.939-0.179,1.863-0.625,2.645-1.183c1.603-1.142,3-2.42,3.937-4.194c0.631-1.195,1.14-2.477,1.362-3.813
						c0.312-1.874,0.429-3.549-0.101-5.417c-0.381-1.341-0.983-2.513-1.911-3.545c-0.561-0.625-1.262-1.127-1.945-1.606
						c-1.494-1.047-4.19-1.081-5.68,0c-0.498,0.361-1.041,0.634-1.471,1.103c-0.801,0.872-1.301,1.867-1.539,3.03
						c0.698-0.908,1.396-1.816,2.094-2.724c-0.233,0.169-0.465,0.338-0.698,0.507c-0.779,0.565-1.373,1.144-1.756,2.052
						c-0.38,0.901-0.453,1.829-0.216,2.794c0.001,0.004,0.002,0.008,0.003,0.011c0-0.722,0-1.444,0-2.166
						c-0.029,0.286-0.073,0.569-0.134,0.85C2908.063,2787.392,2908.204,2788.455,2908.948,2789.109L2908.948,2789.109z"/>
				</g>
			</g>
			<g>
				<g>
					<path style="fill:#39D4FF;" d="M2842.468,2969.739c-1.813-0.042-3.356,1.331-4.678,2.441c-1.427,1.198-2.769,2.444-4.302,3.514
						c-2.977,2.076-6.241,3.807-9.576,5.236c-3.326,1.425-6.963,2.535-10.487,3.346c-1.859,0.428-3.703,0.936-5.576,1.305
						c-1.808,0.357-3.746,0.35-5.5,0.905c-1.298,0.41-1.675,2.295-0.392,2.999c1.698,0.932,3.704,1.182,5.6,1.455
						c2.162,0.312,4.334,0.579,6.516,0.385c4.547-0.405,8.653-1.478,12.837-3.284c3.869-1.67,7.332-3.987,10.557-6.691
						c2.692-2.258,7.734-6.202,6.866-10.191C2844.15,2970.32,2843.285,2969.759,2842.468,2969.739L2842.468,2969.739z"/>
				</g>
			</g>
			<g>
				<g>
					<path style="fill:#39D4FF;" d="M2694.594,3025.512c-5.97-3.426-14.85-0.918-20.969,1.269
						c-7.142,2.552-14.023,5.884-20.388,10.011c-6.064,3.933-12.249,8.929-16.787,14.588c-4.515,5.63-9.034,12.775-10.309,19.973
						c-0.279,1.576,1.403,2.595,2.644,1.539c5.219-4.439,9.765-9.707,14.863-14.314c5.016-4.533,9.873-8.882,15.469-12.714
						c5.51-3.773,11.445-7.035,17.681-9.44c3.107-1.198,6.198-2.451,9.334-3.572c3.344-1.194,6.301-2.174,8.794-4.764
						C2695.652,3027.335,2695.526,3026.046,2694.594,3025.512L2694.594,3025.512z"/>
				</g>
			</g>
			<g>
				<g>
					<path style="fill:#39D4FF;" d="M2279.899,3181.594c3.382,5.374,12.339,5.564,18.014,6.005
						c6.866,0.534,14.103,0.714,20.965,0.121c13.552-1.172,26.725-4.421,39.104-10.085c2.112-0.966,0.926-4.105-1.124-4.149
						c-12.902-0.278-25.796-0.321-38.703-0.147c-6.274,0.084-12.519,0.344-18.797,0.219c-5.554-0.111-14.622-1.374-18.808,2.995
						C2279.305,3177.852,2278.906,3180.017,2279.899,3181.594L2279.899,3181.594z"/>
				</g>
			</g>
			<g>
				<g>
					<path style="fill:#39D4FF;" d="M1531.829,3125.954c-4.556,6.592,4.791,12.753,9.635,15.46
						c7.419,4.147,15.693,6.897,23.917,8.911c16.741,4.1,33.934,3.92,50.086-2.372c2.963-1.154,2.507-5.245-0.748-5.524
						c-13.378-1.15-26.717-2.714-39.99-4.929c-6.49-1.083-12.787-2.778-19.092-4.631c-3.134-0.921-6.208-1.986-9.32-2.968
						c-1.539-0.485-8.348-1.35-8.599-3.177C1537.305,3123.704,1533.208,3123.958,1531.829,3125.954L1531.829,3125.954z"/>
				</g>
			</g>
			<g>
				<g>
					<path style="fill:#39D4FF;" d="M2383.674,3160.169c0.04-0.034,0.081-0.067,0.122-0.1c-0.177,0.137-0.354,0.274-0.531,0.41
						c0.188-0.141,0.392-0.25,0.608-0.344c-0.273,0.115-0.545,0.23-0.818,0.345c0.971-0.175,1.537-0.966,2.262-1.529
						c-0.26,0.2-0.519,0.401-0.779,0.602c0.323-0.239,0.669-0.431,1.038-0.589c-0.343,0.145-0.686,0.289-1.028,0.434
						c0.676-0.274,1.349-0.549,2.016-0.845c-0.365,0.154-0.73,0.308-1.095,0.462c0.424-0.178,0.86-0.302,1.314-0.372
						c-0.425,0.057-0.85,0.114-1.275,0.171c0.417-0.055,0.829-0.059,1.247-0.01c-0.442-0.059-0.884-0.119-1.326-0.178
						c0.452,0.065,0.892,0.165,1.315,0.343c-0.409-0.173-0.818-0.345-1.227-0.518c0.302,0.137,0.581,0.305,0.845,0.506
						c-0.353-0.272-0.706-0.545-1.058-0.817c0.279,0.223,0.524,0.474,0.746,0.754c-0.278-0.36-0.555-0.719-0.833-1.078
						c0.256,0.339,0.464,0.703,0.632,1.092c-0.183-0.434-0.366-0.867-0.549-1.301c0.175,0.427,0.293,0.867,0.361,1.323
						c-0.066-0.494-0.133-0.988-0.199-1.482c0.039,0.298,0.049,0.578,0.013,0.877c0.068-0.505,0.135-1.009,0.203-1.514
						c-0.062,0.447-0.179,0.875-0.354,1.29c0.2-0.475,0.401-0.949,0.601-1.424c-0.143,0.321-0.319,0.619-0.531,0.9
						c0.322-0.416,0.643-0.832,0.964-1.248c-0.18,0.227-0.379,0.432-0.6,0.619c0.932-0.543,1.865-1.087,2.797-1.63
						c-0.312,0.112-0.627,0.174-0.955,0.219c0.578-0.078,1.156-0.156,1.735-0.233c-0.356,0.04-0.708,0.033-1.064-0.013
						c0.594,0.08,1.187,0.159,1.781,0.239c-0.389-0.059-0.763-0.166-1.128-0.314c0.548,0.231,1.097,0.463,1.645,0.694
						c-0.396-0.169-0.762-0.384-1.107-0.64c0.478,0.37,0.957,0.739,1.435,1.109c-0.339-0.263-0.64-0.56-0.907-0.896
						c0.381,0.492,0.761,0.985,1.141,1.477c-0.238-0.312-0.432-0.645-0.587-1.005c0.251,0.596,0.503,1.192,0.755,1.788
						c-0.327-0.787-0.672-1.545-1.012-2.317c0.252,0.597,0.504,1.194,0.756,1.792c-0.127-0.309-0.214-0.623-0.264-0.953
						c0.089,0.665,0.179,1.329,0.268,1.994c-0.04-0.333-0.039-0.66,0.001-0.993c-0.089,0.665-0.178,1.329-0.268,1.994
						c0.054-0.364,0.153-0.711,0.292-1.051c-0.252,0.597-0.504,1.194-0.756,1.792c0.165-0.374,0.371-0.718,0.618-1.042
						c-0.391,0.506-0.782,1.012-1.173,1.518c0.302-0.384,0.629-0.728,1.015-1.029c-0.503,0.389-1.007,0.778-1.51,1.167
						c0.18-0.134,0.367-0.251,0.557-0.37c0.502-0.388,1.004-0.776,1.506-1.164c0.51-0.462,0.912-0.992,1.206-1.591
						c0.248-0.588,0.496-1.175,0.744-1.762c0.249-0.711,0.33-1.426,0.246-2.143c-0.679,1.64-1.358,3.28-2.038,4.919
						c0.163-0.201,0.348-0.373,0.524-0.562c0.806-0.812,1.364-1.768,1.673-2.87c0.271-0.865,0.31-1.729,0.116-2.594
						c-0.039-0.865-0.297-1.672-0.772-2.418c-0.578-0.977-1.356-1.755-2.333-2.333c-0.727-0.339-1.475-0.721-2.277-0.85
						c1.023,0.596,2.046,1.193,3.07,1.789c-0.035-0.039-0.07-0.077-0.105-0.116c-0.498-0.385-0.995-0.769-1.493-1.154
						c-0.588-0.248-1.175-0.496-1.762-0.744c-0.027-0.004-0.054-0.008-0.081-0.011c-0.659-0.089-1.319-0.177-1.979-0.266
						c-0.66,0.089-1.319,0.177-1.979,0.266c-0.081,0.018-1.305,0.492-1.877,0.801c-0.546,0.295-1.01,0.687-1.502,1.068
						c-0.458,0.354-0.936,0.687-1.334,1.11c-0.512,0.542-0.945,1.175-1.392,1.769c-0.111,0.148-0.219,0.298-0.315,0.456
						c-0.458,0.752-0.764,1.617-1.08,2.429c-0.113,0.292-0.2,0.584-0.255,0.892c-0.353,1.959-0.447,3.565,0.071,5.53
						c0.217,0.825,0.611,1.631,0.971,2.394c0.383,0.811,0.979,1.516,1.609,2.152c0.773,0.781,1.686,1.504,2.67,2.004
						c0.983,0.499,2.055,1.002,3.159,1.198c0.809,0.143,1.649,0.283,2.475,0.313c0.841,0.031,1.803-0.157,2.575-0.278
						c0.239-0.037,0.473-0.083,0.704-0.156c0.378-0.119,0.745-0.295,1.105-0.447c0.353-0.149,0.778-0.297,1.127-0.496
						c0.669-0.381,1.275-0.902,1.85-1.399c0.969-0.839,1.497-2.164,1.915-3.332c0.345-0.962,0.469-2.042,0.468-3.055
						c-0.001-0.486-0.089-0.971-0.154-1.449c-0.07-0.521-0.123-1.016-0.272-1.516c-0.567-1.912-1.388-3.634-2.81-5.066
						c-0.647-0.651-1.412-1.27-2.244-1.674c-1.393-0.678-2.458-0.968-4.011-1.09c-0.72-0.056-1.456,0.092-2.163,0.222
						c-0.311,0.058-0.606,0.155-0.9,0.269c-1.384,0.535-2.435,1.134-3.55,2.134c-0.944,0.846-1.548,2.111-1.921,3.304
						c-0.181,0.581-0.255,1.235-0.311,1.827c-0.11,1.153,0.255,2.176,1.027,3.049c-0.178-0.231-0.357-0.462-0.535-0.693
						c0.277,0.456,0.607,0.903,1.005,1.262c0.462,0.417,1.095,0.75,1.74,0.721
						C2382.619,3160.859,2383.15,3160.609,2383.674,3160.169L2383.674,3160.169z"/>
				</g>
			</g>
			<g style="opacity:0.85;">
				<g>
					<path style="fill:#FFFFFF;" d="M1125.906,3172.311c-15.193,3.576-18.022,22.483-13.421,35.189
						c4.322,11.936,13.252,21.349,23.529,28.478c20.018,13.887,45.71,16.144,69.359,15.213c6.837-0.269,13.737-1.238,18.931-6.108
						c5.642-5.289,7.258-13.416,4.977-20.672c-4.643-14.764-19.57-15.698-32.218-18.739c-4.491-1.08-10.083-2.737-12.906-4.28
						c-2.319-1.268-4.608-2.497-6.761-4.043c-1.966-1.413,2.049,2.114-0.924-0.792c-1.138-1.112-2.306-2.164-3.371-3.35
						c-2.198-2.448-3.38-4.669-4.404-8.856c-1.717-7.013-3.044-13.714-7.98-19.319c-12.169-13.818-33.924-7.674-38.629,9.74
						c-4.159,15.391,7.214,31.251,18.66,40.318c5.62-7.284,11.24-14.568,16.86-21.852c-4.094-2.551-6.225-3.358-9.369-7.665
						c0.885,1.213-0.061-0.242-0.251-0.703c-1.774-4.297,0.319,1.204-0.499-1.346c-0.219-0.985-0.264-0.927-0.135,0.175
						c-0.017-0.473-0.033-0.946-0.05-1.419c-0.25,2.391,0.761-1.799-0.221,0.257c2.448-5.123,2.613-10.818-1.089-15.466
						c-3.441-4.32-9.154-6.539-14.637-4.99c-8.776,2.479-15.179,10.756-15.091,19.998c0.082,8.648,4.932,15.235,10.221,21.588
						c9.11,10.944,19.861,20.28,31.501,28.446c6.169,4.328,15.5,1.117,19.08-5.003c4.071-6.959,1.183-14.746-5.003-19.08
						c-6.398-4.483-12.377-9.593-18.414-15.791c-2.953-3.031-5.86-6.172-8.473-9.505c-1.57-2.002,0.77,1.301-0.48-0.695
						c-0.28-0.391-0.532-0.799-0.757-1.224c-0.413-0.74-0.471-0.832-0.175-0.274c-0.062,0.108,0.342,1.944,0.3,2.274
						c-0.336,2.634-2.754,5.398-5.305,6.121c-5.242-6.819-10.484-13.638-15.726-20.456c-4.761,9.977-4.523,20.699,0.914,30.441
						c4.444,7.962,12.029,13.625,19.614,18.344c5.835,3.631,13.935,1.787,17.948-3.583c3.751-5.02,4.419-13.912-1.088-18.268
						c-1.618-1.28-3.18-2.602-4.65-4.052c-0.733-0.724-1.417-1.489-2.124-2.239c-0.024-0.025-1.654-1.961-0.736-0.782
						c-1.106-1.421-2.055-2.997-2.938-4.56c-1.19-2.104,0.319,1.295-0.507-0.953c-0.183-0.483-0.326-0.977-0.43-1.483
						c-0.251-0.966-0.247-0.996,0.013-0.092c-0.671,1.094-0.555,2.013-1.797,2.813c-1.994,1.283-4.656,0.627-6.646-0.115
						c-0.136-0.089-0.271-0.178-0.407-0.267c-0.648-0.922-0.72-0.971-0.217-0.147c0.097-0.092,0.465,1.145,0.043,0.027
						c0.882,2.337,1.153,4.924,1.699,7.351c4.026,17.875,18.227,30.381,34.566,37.165c7.769,3.226,15.791,4.935,24.031,6.452
						c0.444,0.082,5.529,0.932,5.502,1.343c-0.028,0.438-2.601-2.29-2.661-2.415c-1.478-3.094-0.123-4.832,1.544-7.092
						c-0.695,0.943,2.431-2.569,2.628-2.91c0.331-0.571,1.644-0.077-0.285-0.057c-1.4,0.014-2.805,0.111-4.205,0.152
						c-4.211,0.124-8.426,0.156-12.636,0.019c-2.241-0.073-4.482-0.191-6.718-0.368c-2.035-0.162-4.5-0.434-5.48-0.588
						c-3.96-0.624-7.891-1.494-11.73-2.651c-1.799-0.542-3.565-1.167-5.326-1.818c0.003,0.001-2.121-0.884-0.952-0.373
						c1.192,0.521-1.907-0.926-2.183-1.064c-1.882-0.944-3.72-1.974-5.504-3.093c-0.79-0.496-1.569-1.008-2.336-1.54
						c-0.534-0.37-2.501-1.932-1.097-0.777c-1.613-1.327-3.145-2.752-4.589-4.261c-0.643-0.672-1.263-1.362-1.871-2.065
						c-1.62-1.87,1.743,2.788-0.932-1.211c-0.586-0.876-1.106-1.79-1.682-2.672c-0.068-0.104-1.187-2.108-0.654-0.947
						c-0.428-0.932-0.683-1.989-0.964-2.978c-1.164-4.093-0.177,0.653-0.234-1.368c-0.01-0.365,0.083-3.092-0.085-1.462
						c-0.165,1.596,0.49-1.656,0.605-2.011c-0.952,2.942,1.077-2.437,1.056-2.36c0.15-0.545,0.944-6.474,0.424-3.602
						C1141.518,3177.77,1134.883,3170.198,1125.906,3172.311L1125.906,3172.311z"/>
				</g>
			</g>
			<g style="opacity:0.85;">
				<g>
					<path style="fill:#FFFFFF;" d="M973.536,2731.933c-8.72-3.981-19.646-4.607-29.113-3.414c-11.106,1.4-21.74,4.019-32.093,8.288
						c-10.221,4.214-19.904,9.492-28.681,16.241c-4.178,3.212-8.341,7.174-11.83,11.141c-3.672,4.177-4.827,9.074-6.567,14.199
						c-0.735,2.164,1.746,3.366,3.443,2.647c4.414-1.872,8.938-2.681,12.929-5.504c4.133-2.925,8.372-5.531,12.589-8.309
						c8.256-5.437,16.748-10.381,25.713-14.567c8.495-3.967,17.418-7.271,26.431-9.842c9.081-2.59,18.639-4.981,27.179-8.958
						C974.26,2733.519,974.269,2732.268,973.536,2731.933L973.536,2731.933z"/>
				</g>
			</g>
			<g style="opacity:0.85;">
				<g>
					<path style="fill:#FFFFFF;" d="M953.538,2760.622c-2.571-1.42-5.435-1.57-8.331-1.656c0.877,0.237,1.755,0.475,2.632,0.712
						c-5.269-2.518-11.25-0.816-16.516,0.901c-5.164,1.684-10.064,3.835-14.681,6.704c-4.495,2.793-8.541,6.215-12.084,10.146
						c-0.898,0.997-1.781,2.013-2.622,3.059c-0.566,0.704-1.136,1.406-1.573,2.198c-0.247,0.585-0.494,1.169-0.74,1.754
						c0.159-0.433,0.137-0.419-0.066,0.041c-0.759,1.669-0.964,3.067-1.089,4.865c-0.028,0.406-0.144,0.813-0.148,1.22
						c-0.004,0.394-0.104,2.582,0.154,1.061c-0.336,1.982,1.367,4.74,3.748,3.748c2.326-0.97,3.884-0.397,6.474-1.756
						c1.403-0.736,2.654-1.476,3.902-2.471c0.421-0.336,0.833-0.683,1.253-1.021c0.25-0.201,0.979-0.743,0.317-0.247
						c3.724-2.791,7.612-5.4,11.495-7.964c3.772-2.49,7.707-4.894,11.703-7.007c0.937-0.495,1.88-0.997,2.847-1.432
						c0.59-0.265-0.231,0.082,0.809-0.299c1.307-0.478,2.146-1.183,3.288-1.916c-0.627,0.403,0.247-0.1,0.426-0.192
						c0.457-0.236,0.932-0.479,1.371-0.746c1.544-0.941,2.559-2.063,3.604-3.513c-0.624,0.624-1.247,1.247-1.871,1.871
						c2.212-1.241,4.451-2.323,6.197-4.197C955.088,2763.358,954.969,2761.413,953.538,2760.622L953.538,2760.622z"/>
				</g>
			</g>
			<g>
				<g>
					<g>
						<path style="fill:#FFFFFF;" d="M2885,2877.5c-45,75-162.9,93.45-275,85c0,238-1180,238-1180,0c-2.95,0.25-5.9,0.45-8.9,0.6
							c-109.4,6.85-222.3-12.6-266.1-85.6c1.15-6.55,2.35-13.1,3.6-19.55c31.65-165.3,95.8-292.35,165.3-367.649
							c35.15-38.151,71.7-62.95,106.1-72.8h1180C2715,2447.5,2840,2617.5,2885,2877.5z"/>
					</g>
					<g>
						<path style="fill:#000072;" d="M2019.999,3156.015c-155.842,0-301.279-16.035-409.522-45.146
							c-116.885-31.436-183.408-77.002-193.984-132.461c-134.678,7.378-234.214-26.284-274.355-93.188
							c-1.85-3.086-2.532-6.733-1.919-10.278c21.367-123.457,61.865-234.712,117.117-321.733
							c51.006-80.332,110.862-133.652,168.543-150.132c7.966-2.251,16.269,2.339,18.545,10.303s-2.336,16.27-10.303,18.545
							c-96.924,27.69-218,188.403-263.345,442.461c53.054,79.429,197.581,77.69,258.098,73.159c4.187-0.322,8.267,1.123,11.326,3.96
							c3.061,2.837,4.8,6.821,4.8,10.996c0,93.218,247.197,163.516,575,163.516s575-70.298,575-163.516
							c0-4.175,1.738-8.159,4.8-10.996c3.059-2.837,7.161-4.282,11.326-3.96c60.518,4.546,205.044,6.27,258.098-73.159
							c-45.344-254.058-166.421-414.771-263.345-442.461c-7.966-2.275-12.578-10.581-10.303-18.545s10.579-12.554,18.545-10.303
							c57.681,16.479,117.537,69.8,168.542,150.132c55.251,87.021,95.75,198.276,117.117,321.733
							c0.613,3.545-0.068,7.192-1.919,10.278c-40.139,66.899-139.717,100.566-274.341,93.188
							C2600.338,3100.932,2308.917,3156.015,2019.999,3156.015z"/>
					</g>
					<g>
						<path style="fill:#000072;" d="M1471.032,2779.336c-12.204,58.798-22.565,119.844-17.064,179.657
							c1.918,16.649,4.987,36.796,14.179,49.645c5.893,6.516,5.244,16.81-1.83,22.186c-11.898,8.218-20.646-0.733-27.052-10.657
							c-4.676-7.892-8.504-16.43-10.754-25.288c-8.574-31.705-6.709-66.039-2.176-97.747c5.941-41.78,17.349-82.359,32.633-121.469
							C1461.793,2768.546,1472.686,2771.739,1471.032,2779.336L1471.032,2779.336z"/>
					</g>
					<g>
						<path style="fill:#000072;" d="M2583.087,2775.837c23.602,65.449,45.988,149.428,30.184,218.811
							c-2.071,8.848-5.667,17.416-10.14,25.378c-1.923,2.795-3.936,5.544-5.976,8.251c-4.995,6.62-14.411,7.938-21.031,2.944
							c-7.27-5.406-7.951-16.153-1.647-22.584c9.91-12.432,13.489-32.842,15.493-49.536c4.324-39.393,0.094-80.318-5.885-119.78
							c-3.276-20.134-7.374-40.211-11.946-60.256C2570.617,2772.267,2580.605,2769.148,2583.087,2775.837L2583.087,2775.837z"/>
					</g>
					<g style="opacity:0.25;">
						<g>
							<path style="fill:#000072;" d="M1762.25,2938.1c-46.75-16.3-89.35-44.4-122.75-80.95c-23.75-26-43.6-56.799-73.6-75.3
								c-29.95-18.5-75.45-19.2-94.95,10.149c-5.8,8.701-8.6,19-11.35,29.1c-12.85,47.35-25.65,94.65-38.5,142
								c-109.4,6.85-222.3-12.6-266.1-85.6c1.15-6.55,2.35-13.1,3.6-19.55c34.65,18.3,73.1,29.45,112.2,32.1
								c24.1,1.65,50.25-0.5,68.95-15.85c16.9-13.949,24.5-36,30.2-57.15c8.55-31.3,14.75-63.199,19.55-95.3
								c7.75-52.2,11.4-106.95-6.8-156.45c-11.1-30.15-32.15-57.8-58.8-75c35.15-38.151,71.7-62.95,106.1-72.8h96.15
								c10.95,7.1,21.5,14.8,31.5,23.15c61.55,51.15,104.2,123.1,125.95,200.15C1711.65,2740,1707.65,2850.65,1762.25,2938.1z"/>
						</g>
					</g>
					<g style="opacity:0.25;">
						<g>
							<path style="fill:#000072;" d="M2290,2938.1c46.75-16.3,89.35-44.4,122.75-80.95c23.75-26,43.6-56.799,73.6-75.3
								c29.95-18.5,75.45-19.2,94.95,10.149c7.306,10.996,10.331,21.527,11.35,29.1c5.828,43.295,11.72,90.417,17.35,141.4
								c28.366,6.53,99.116,18.715,178.8-12.257c53.54-20.81,89.143-52.563,108.45-72.743c-1.15-6.55-2.35-13.1-3.6-19.55
								c-34.65,18.3-73.1,29.45-112.2,32.1c-24.1,1.65-50.25-0.5-68.95-15.85c-16.9-13.949-24.5-36-30.2-57.15
								c-8.55-31.3-14.75-63.199-19.55-95.3c-7.75-52.2-11.4-106.95,6.8-156.45c11.1-30.15,32.15-57.8,58.8-75
								c-35.15-38.151-71.7-62.95-106.1-72.8h-96.15c-10.95,7.1-21.5,14.8-31.5,23.15c-61.55,51.15-104.2,123.1-125.95,200.15
								C2340.6,2740,2344.6,2850.65,2290,2938.1z"/>
						</g>
					</g>
				</g>
				<g>
					<g style="opacity:0.3;">
						<path style="fill:#181558;" d="M1549.216,1617.442c-0.411,2.751-0.902,5.55-1.482,8.271
							C1548.356,1622.989,1548.808,1620.235,1549.216,1617.442z"/>
					</g>
					<g style="opacity:0.3;">
						<path style="fill:#181558;" d="M1546.782,1629.84c-0.936,3.708-2.047,7.301-3.287,10.86
							C1544.777,1637.138,1545.846,1633.547,1546.782,1629.84z"/>
					</g>
					<g>
						<path style="fill:none;stroke:#6B184E;stroke-width:33.1204;stroke-linecap:round;stroke-miterlimit:10;" d="
							M1687.741,2187.888"/>
					</g>
					<g>
						<g>
							<path style="fill:#FF8D06;" d="M2469.388,2446.768c-155.651,326.24-319.314,520.46-495.822,506.387
								c-113.991,11.693-224.803-64.003-333.204-206.424c-54.063-71.032-107.523-158.655-160.509-260.293
								c-4.867-9.319-9.681-18.741-14.551-28.318l25.456-123.899l950.103-10.742L2469.388,2446.768z"/>
						</g>
						<g style="opacity:0.25;">
							<g>
								<path style="fill:#000072;" d="M2469.388,2446.768c-155.651,326.24-319.314,520.46-495.822,506.387
									c-113.991,11.693-224.803-64.003-333.204-206.424c-12.991-41.83-19.798-85.583-25.197-129.043
									c33.804,35.207,68.097,70.719,109.993,96.77c41.951,26.051,93.007,41.955,142.251,33.57
									c53.015-9.046,99.291-47.631,115.798-96.542c5.104-15.097,7.375-32.171,0.071-46.406
									c-14.329-27.805-54.092-29.879-86.543-30.079c-111.336-0.544-222.48-24.782-322.984-70.464l28.38,20.229
									c-41.539-10.346-82.407-23.121-122.279-38.328c-4.867-9.319-9.681-18.741-14.551-28.318l25.456-123.899l950.103-10.742
									L2469.388,2446.768z"/>
							</g>
						</g>
						<g>
							<g>
								<path style="fill:#FF8D06;" d="M2613.221,2248.885c-22.036,54.489-23.467,114.681-17.576,151.577
									c-44.465,31.407-91.247,58.202-141.314,80.323c-121.043,53.574-261.167,79.728-433.048,77.692l-1.943-0.023
									c-223.327-2.645-391.844-51.613-533.424-145.844c-12.419-8.182-24.617-16.773-36.649-25.723
									c7.776-41.576,6.873-113.23-22.797-173.327c129.977,131.229,295.019,210.699,467.542,238.082
									c31.52,5.009,63.224,8.268,95.058,9.83c86.926,4.171,174.505-4.629,259.285-26.391
									c136.893-35.154,266.56-104.18,374.589-207.353C2619.291,2234.638,2616.067,2241.708,2613.221,2248.885z"/>
							</g>
							<g>
								<path style="fill:#000072;" d="M2039.784,2573.588c-6.194,0-12.397-0.039-18.664-0.112l-1.929-0.02
									c-238.792-2.827-422.727-58.286-578.882-174.536c-4.595-3.418-6.841-9.16-5.786-14.79
									c8.127-43.447,4.636-110.991-21.489-163.94c-3.254-6.597-1.245-14.58,4.744-18.848c5.984-4.272,14.189-3.574,19.365,1.655
									c318.95,322.026,846.252,328.247,1175.442,13.872c5.315-5.073,13.523-5.552,19.39-1.128
									c5.869,4.424,7.666,12.451,4.248,18.955c-27.5,52.329-32.749,119.766-25.752,163.389c0.908,5.649-1.479,11.323-6.15,14.624
									C2449.367,2522.27,2269.56,2573.588,2039.784,2573.588z M1465.558,2380.253c149.267,108.599,325.598,160.503,553.96,163.203
									l1.929,0.02c228.335,2.71,406.035-45,558.101-150.054c-3.625-30.835-2.566-72.427,8.022-114.17
									c-157.803,130.669-356.841,200.64-566.914,198.159c-209.961-2.485-406.575-77.061-560.105-211.274
									C1470.004,2308.041,1469.977,2349.56,1465.558,2380.253z"/>
							</g>
							<g style="opacity:0.25;">
								<g>
									<path style="fill:#000072;" d="M2595.645,2400.462c-44.465,31.407-91.247,58.202-141.314,80.323
										c-94.704,37.61-203.153,61.049-330.533,70.511l-1.946,0.131c-222.658,16.523-395.091-17.761-544.987-99.472
										c94.669,31.509,192.026,55.53,290.888,71.792c21.712,3.553,43.861,6.751,65.557,3.248
										c21.642-3.503,43.117-14.889,52.81-33.677c5.04-9.726,5.948-21.458,2.952-31.847c-0.514-1.963-1.245-3.877-2.085-5.69
										c87.654,6.291,175.912-0.698,261.37-20.701c132.79-30.979,258.752-93.354,364.865-186.197
										C2591.185,2303.374,2589.754,2363.566,2595.645,2400.462z"/>
								</g>
							</g>
						</g>
						<g>
							<g>
								<g>
									<path style="fill:#FFBB4C;" d="M2012.569,2913.76c118.063-3.327,211.293-46.952,270.269-146.165
										c70.164-140.123,144.194-268.158,264.137-341.084c28.931-17.59,64.751-19.64,95.698-5.961l31.125,13.758
										c19.997,8.839,35.648,25.248,43.51,45.616l7.692,19.93c-95.027-34.604-231.133,113.15-274.022,236.254
										c-90.4,204.95-205.801,347.798-437.873,334.749l5.16,0.061c-232.339,7.55-343.988-137.987-429.027-345.014
										c-39.673-124.082-171.893-275.013-267.79-242.67l8.208-19.742c8.389-20.176,24.462-36.209,44.683-44.572l31.474-13.016
										c31.293-12.942,67.049-10.044,95.513,8.225c118.009,75.744,188.683,205.492,255.18,347.234
										c56.377,100.579,148.443,146.398,266.383,152.519"/>
								</g>
								<g style="opacity:0.55;">
									<path style="fill:#FFFFFF;" d="M1373.971,2447.243l31.474-13.016c31.293-12.942,67.049-10.044,95.513,8.225
										c118.009,75.744,188.684,205.493,255.18,347.234c55.549,99.103,145.767,145.012,261.226,152.195
										c115.61-4.447,206.995-48.206,265.106-145.962c70.164-140.123,144.193-268.158,264.136-341.084
										c28.931-17.59,64.751-19.64,95.698-5.961l31.125,13.758c15.875,7.017,28.935,18.854,37.609,33.607
										c4.73,0.844,9.406,1.957,13.961,3.616l-7.692-19.93c-7.862-20.368-23.513-36.777-43.51-45.616l-31.125-13.758
										c-30.947-13.679-66.767-11.629-95.698,5.961c-119.943,72.927-193.972,200.961-264.137,341.084
										c-58.111,97.757-149.496,141.516-265.106,145.962c-115.459-7.183-205.677-53.093-261.226-152.195
										c-66.497-141.741-137.172-271.49-255.18-347.234c-28.464-18.269-64.22-21.167-95.513-8.225l-31.474,13.016
										c-20.221,8.363-36.294,24.396-44.683,44.572l-8.208,19.742c4.598-1.551,9.301-2.553,14.051-3.285
										C1344.555,2465.407,1357.918,2453.882,1373.971,2447.243z"/>
								</g>
								<g style="opacity:0.25;">
									<path style="fill:#000072;" d="M2698.233,2451.013c-92.088-2.38-207.766,129.611-246.686,241.322
										c-90.06,204.179-204.969,346.675-435.293,334.842c-230.562,6.375-341.727-138.797-426.447-345.046
										c-36.001-112.598-148.209-247.288-240.33-247.089c-8.458,7.925-15.289,17.552-19.821,28.45l-8.208,19.742
										c95.898-32.343,228.118,118.588,267.79,242.67c84.72,206.249,195.885,351.421,426.447,345.046
										c230.325,11.833,345.233-130.663,435.293-334.842c42.889-123.104,178.996-270.858,274.022-236.254l-7.692-19.93
										C2713.061,2468.922,2706.482,2459.136,2698.233,2451.013z"/>
								</g>
								<g>
									<path style="fill:#000072;" d="M2042.135,3086.689c-8.762,0-17.637-0.225-26.663-0.684
										c-111.897,3.042-202.561-28.447-277.039-96.021c-61.924-56.182-113.74-138.286-163.071-258.384
										c-0.154-0.371-0.291-0.747-0.413-1.128c-28.777-90.005-105.3-187.798-174.214-222.637
										c-27.969-14.136-53.025-17.632-74.497-10.391c-5.581,1.875-11.741,0.322-15.757-3.979
										c-4.019-4.302-5.146-10.557-2.886-15.996l8.211-19.741c9.983-24.009,28.735-42.715,52.8-52.671l31.472-13.018
										c36.03-14.888,76.909-11.357,109.351,9.468c125.042,80.259,197.239,218.345,260.422,352.988
										c50.352,89.492,131.545,136.66,248.062,144.072c116.68-4.648,199.08-49.888,251.758-138.179
										c66.663-133.096,142.422-269.424,269.509-346.694c32.969-20.054,73.926-22.622,109.556-6.865l31.123,13.755
										c23.816,10.532,42.083,29.688,51.443,53.94l7.69,19.927c2.117,5.488,0.833,11.704-3.286,15.903
										c-4.119,4.209-10.308,5.596-15.84,3.594c-21.24-7.744-46.35-4.854-74.631,8.569
										c-69.846,33.154-148.953,129.141-180.093,218.525c-0.132,0.376-0.278,0.752-0.442,1.118
										c-52.439,118.887-106.372,199.731-169.731,254.424C2224.901,3057.07,2141.94,3086.684,2042.135,3086.689z
										 M2021.405,3056.249c234.292,9.619,338.291-150.527,415.61-325.654c34.141-97.451,118.035-198.477,195.356-235.176
										c24.28-11.523,47.222-16.729,68.542-15.586c-6.946-14.165-18.552-25.337-33.184-31.807l-31.121-13.755
										c-26.665-11.787-57.258-9.897-81.843,5.059c-120.437,73.228-193.748,205.635-258.516,334.98
										c-0.161,0.322-0.334,0.64-0.52,0.952c-56.162,94.473-146.323,145.854-268.14,152.866c-1.716,0.566-3.562,0.83-5.481,0.732
										c-1.521-0.078-3.042-0.166-4.553-0.259c-1.519,0.059-3.035,0.107-4.566,0.151c-1.924,0.083-3.76-0.254-5.464-0.864
										c-121.614-9.897-210.418-63.408-264.109-159.194c-0.176-0.313-0.339-0.635-0.493-0.962
										c-61.382-130.835-131.223-264.937-249.702-340.981c-24.187-15.522-54.717-18.135-81.68-6.987l-31.472,13.018
										c-14.795,6.118-26.689,17.012-34.009,31.006c21.423-0.601,44.197,5.137,68.208,17.275
										c76.304,38.574,157.495,141.533,189.067,239.692c72.734,176.904,172.715,339.653,407.002,335.356
										c0.95-0.176,1.87-0.254,2.934-0.254l5.161,0.059C2019.455,3055.932,2020.446,3056.044,2021.405,3056.249z"/>
								</g>
								<g>
									<path style="fill:#371A45;" d="M1486.14,2499.194c-5.037-7.051-3.129-16.663,4.263-21.468
										c7.392-4.805,17.467-2.985,22.505,4.067s3.129,16.663-4.263,21.468C1501.253,2508.066,1491.177,2506.245,1486.14,2499.194z
										"/>
								</g>
								<g>
									<path style="fill:#000072;" d="M1486.14,2499.194c-5.037-7.051-3.129-16.663,4.263-21.468
										c7.392-4.805,17.467-2.985,22.505,4.067s3.129,16.663-4.263,21.468C1501.253,2508.066,1491.177,2506.245,1486.14,2499.194z
										"/>
								</g>
								<g>
									<path style="fill:#000072;" d="M1613.421,2675.819c-5.037-7.052-3.129-16.663,4.263-21.469
										c7.392-4.805,17.467-2.985,22.505,4.067c5.037,7.051,3.129,16.663-4.263,21.468
										C1628.533,2684.69,1618.458,2682.87,1613.421,2675.819z"/>
								</g>
								<g>
									<path style="fill:#000072;" d="M1713.71,2852.124c-5.037-7.051-3.129-16.663,4.263-21.468
										c7.392-4.805,17.467-2.985,22.504,4.067c5.037,7.051,3.129,16.663-4.263,21.468
										C1728.822,2860.996,1718.747,2859.175,1713.71,2852.124z"/>
								</g>
								<g>
									<ellipse style="fill:#000072;" cx="1865.974" cy="2958.379" rx="16.196" ry="15.45"/>
								</g>
								<g>
									<ellipse style="fill:#000072;" cx="2546.79" cy="2502.894" rx="16.196" ry="15.45"/>
								</g>
								<g>
									<ellipse style="fill:#000072;" cx="2414.953" cy="2676.451" rx="16.196" ry="15.45"/>
								</g>
								<g>
									<path style="fill:#000072;" d="M2323.26,2859.342c5.219-6.93,3.561-16.584-3.703-21.563
										c-7.264-4.979-17.384-3.397-22.603,3.533c-5.219,6.93-3.561,16.584,3.703,21.563
										C2307.921,2867.853,2318.042,2866.271,2323.26,2859.342z"/>
								</g>
								<g>
									<path style="fill:#000072;" d="M2181.431,2970.973c5.219-6.93,3.561-16.584-3.703-21.563
										c-7.264-4.979-17.384-3.397-22.604,3.533c-5.219,6.93-3.561,16.584,3.703,21.563
										C2166.092,2979.485,2176.212,2977.903,2181.431,2970.973z"/>
								</g>
								<g>
									<path style="fill:#000072;" d="M2003.407,2994.618c-5.037-7.052-3.129-16.663,4.263-21.469
										c7.392-4.805,17.467-2.984,22.505,4.067c5.037,7.051,3.129,16.663-4.263,21.468
										C2018.52,3003.49,2008.444,3001.669,2003.407,2994.618z"/>
								</g>
							</g>
							<g>
								<g>
									
										<ellipse transform="matrix(0.0116 -0.9999 0.9999 0.0116 -783.6747 4767.0464)" style="fill:#6AD2EA;" cx="2019.471" cy="2779.928" rx="66.952" ry="159.26"/>
								</g>
								<g style="opacity:0.25;">
									<path style="fill:#000072;" d="M2175.07,2767.174c-13.507,22.769-78.865,39.416-157.283,38.487
										c-75.699-0.896-138.805-17.878-154.706-39.817c-1.795,3.947-2.804,8.019-2.859,12.199
										c-0.481,36.973,70.427,67.791,158.378,68.832c87.951,1.042,159.639-28.087,160.12-65.061
										C2178.786,2776.799,2177.496,2771.903,2175.07,2767.174z"/>
								</g>
								<g>
									<path style="fill:#000072;" d="M2023.397,2859.404c-1.641,0-3.291-0.01-4.946-0.029
										c-67.444-0.801-128.337-19.063-155.134-46.533c-10.361-10.62-15.754-22.71-15.596-34.961
										c0.591-45.283,74.727-78.584,172.771-77.397c67.444,0.801,128.337,19.063,155.132,46.528
										c10.361,10.625,15.754,22.715,15.596,34.966C2190.639,2826.493,2118.847,2859.404,2023.397,2859.404z M2015.858,2725.458
										c-81.829,0-142.81,27.485-143.137,52.744c-0.073,5.552,2.783,11.333,8.491,17.183
										c22.056,22.607,77.327,38.276,137.537,38.989c83.996,1.011,147.136-27.017,147.471-52.72l12.5,0.161l-12.5-0.161
										c0.073-5.552-2.783-11.333-8.494-17.188c-22.051-22.607-77.322-38.271-137.532-38.984
										C2018.744,2725.463,2017.296,2725.458,2015.858,2725.458z"/>
								</g>
								<g style="opacity:0.55;">
									
										<ellipse transform="matrix(0.0118 -0.9999 0.9999 0.0118 -751.5455 4727.1948)" style="fill:#FFFFFF;" cx="2015.892" cy="2743.832" rx="10.3" ry="59.385"/>
								</g>
							</g>
						</g>
					</g>
					<g>
						<g>
							<g>
								<path style="fill:#FFBB4C;" d="M2773.232,1356.407l185.026,5.209c29.47,0.83,56.155,17.987,68.803,44.617
									c84.58,178.076,65.571,395.141-41.057,594.187l-230.721-6.496L2773.232,1356.407z"/>
							</g>
							<g style="opacity:0.6;">
								<path style="fill:#FFFFFF;" d="M3003.306,1440.843c-10.81-21.779-33.079-35.532-57.387-36.217l-173.883-4.895l1.22-43.325
									l192.466,5.419c24.308,0.684,46.577,14.437,57.388,36.223c85.584,172.46,72.389,382.811-24.675,578.226
									C3077.07,1793.299,3082.675,1600.774,3003.306,1440.843z"/>
							</g>
							<g style="opacity:0.25;">
								<path style="fill:#000072;" d="M3048.665,1459.055c2.863,108.122-17.458,221.451-58.926,330.911
									c-10.432,27.536-37.19,45.449-66.623,44.621l-138.931-3.911l13.333-473.585l-24.287-0.684l-17.949,637.518l230.721,6.496
									C3082.303,1820.657,3107.062,1626.22,3048.665,1459.055z"/>
							</g>
							<g>
								<path style="fill:#000072;" d="M2940.563,2019.111c-0.901,0-1.799-0.01-2.705-0.039l-183.14-5.156
									c-5.3-0.146-10.327-2.397-13.97-6.25c-3.645-3.857-5.608-9.001-5.459-14.304l17.949-637.517
									c0.31-11.04,9.565-19.653,20.554-19.429l187.532,5.278c35.583,1.001,67.266,21.545,82.681,53.616
									c79.8,165.976,73.318,373.511-17.783,569.392C3010.744,1997.98,2977.323,2019.111,2940.563,2019.111z M2775.836,1974.496
									l163.149,4.592c21.746,0.561,41.848-11.655,50.967-31.257c87.297-187.698,93.691-377.766,18.003-535.19
									c-8.904-18.521-27.202-30.383-47.754-30.962l-167.542-4.717L2775.836,1974.496z"/>
							</g>
						</g>
						<g>
							<g>
								<path style="fill:#FFBB4C;" d="M1284.946,1314.506l-192.465-5.419c-24.308-0.684-47.316,11.792-59.334,32.932
									c-99.083,174.285-93.596,395.629,3.13,603.509l230.721,6.496L1284.946,1314.506z"/>
							</g>
							<g style="opacity:0.6;">
								<path style="fill:#FFFFFF;" d="M1050.51,1385.864c12.018-21.137,35.025-33.615,59.334-32.931l173.883,4.896l1.22-43.325
									l-192.466-5.419c-24.308-0.684-47.315,11.794-59.335,32.937c-95.152,167.372-93.813,378.132-7.898,578.699
									C957.033,1733.611,962.269,1541.075,1050.51,1385.864z"/>
							</g>
							<g style="opacity:0.25;">
								<path style="fill:#000072;" d="M1004.174,1401.494c-9.216,111.099,5.846,229.106,43.52,343.974
									c7.249,22.101,27.839,37.102,51.089,37.756l148.543,4.182l13.333-473.585l24.286,0.684l-17.949,637.518l-230.721-6.496
									C950.244,1760.63,936.464,1565.108,1004.174,1401.494z"/>
							</g>
							<g>
								<path style="fill:#000072;" d="M1266.996,1972.023c-0.188,0-0.376-0.002-0.564-0.007l-183.137-5.156
									c-37.822-1.065-71.25-24.326-85.164-59.26c-79.937-200.693-74.732-408.267,14.28-569.49
									c17.197-31.148,50.032-49.834,85.566-48.877l187.532,5.281c11.04,0.313,19.739,9.514,19.429,20.557l-17.949,637.517
									c-0.149,5.3-2.4,10.327-6.255,13.97C1277.016,1970.073,1272.099,1972.023,1266.996,1972.023z M1095.285,1329.196
									c-19.946,0-38.176,10.715-47.854,28.245c-84.426,152.917-88.735,343.044-12.136,535.359
									c7.998,20.085,27.28,33.46,49.128,34.075l163.145,4.595l16.824-597.534l-167.539-4.717
									C1096.33,1329.203,1095.805,1329.196,1095.285,1329.196z"/>
							</g>
						</g>
						<g>
							<g>
								<path style="fill:#FFBB4C;" d="M1728.107,898.374l6.386-230.724c185.344-110.32,421.971-97.694,637.527,17.647
									l-6.387,230.724L1728.107,898.374z"/>
							</g>
							<g style="opacity:0.55;">
								<path style="fill:#FFFFFF;" d="M1776.311,693.133c173.393-103.207,391.668-98.793,595.585-3.359l0.124-4.477
									c-215.555-115.341-452.183-127.967-637.527-17.647l-6.386,230.724l42.49,1.176L1776.311,693.133z"/>
							</g>
							<g style="opacity:0.25;">
								<path style="fill:#000072;" d="M1830.625,622.892c112.037-3.02,229.676,18.851,342.819,63.352
									c20.557,8.086,33.704,28.38,33.092,50.462l-4.166,150.49l-473.591-13.109l-0.672,24.287l637.527,17.647l6.387-230.724
									C2192.21,589.083,1997.762,564.417,1830.625,622.892z"/>
							</g>
							<g>
								<path style="fill:#000072;" d="M2365.634,936.022c-0.186,0-0.369-0.003-0.554-0.007l-637.527-17.649
									c-11.04-0.305-19.744-9.504-19.439-20.547l5.554-200.647c0.732-26.504,15.862-50.547,39.485-62.747
									c173.118-89.385,390.857-83.018,597.4,17.456c25.413,12.363,41.326,38.774,40.537,67.283l-5.464,197.412
									c-0.146,5.3-2.395,10.327-6.248,13.975C2375.661,934.069,2370.739,936.022,2365.634,936.022z M1748.654,878.935
									l597.541,16.541l4.91-177.417c0.356-12.842-6.731-24.7-18.052-30.205c-195.078-94.895-399.751-101.421-561.548-17.886
									c-10.681,5.515-17.522,16.365-17.851,28.31L1748.654,878.935z"/>
							</g>
						</g>
						<g>
							
								<ellipse transform="matrix(0.0281 -0.9996 0.9996 0.0281 346.2253 3604.1443)" style="fill:#FF8D06;" cx="2026.634" cy="1624.017" rx="871.62" ry="911.101"/>
						</g>
						<g style="opacity:0.25;">
							<path style="fill:#371A45;" d="M1643.785,1841.104l-234.031-6.589c-31.704-0.893-56.682-27.317-55.789-59.022l3.947-140.196
								c0.893-31.704,27.318-56.682,59.022-55.789l234.032,6.589L1643.785,1841.104z"/>
						</g>
						<g>
							<path style="fill:#FFBB4C;" d="M1644.981,1798.603l-234.031-6.589c-31.704-0.893-56.682-27.318-55.789-59.022l3.947-140.196
								c0.893-31.704,27.318-56.682,59.022-55.789l234.031,6.589L1644.981,1798.603z"/>
						</g>
						<g style="opacity:0.55;">
							<path style="fill:#FFFFFF;" d="M1488.228,1538.98c-70.418-1.983-129.111,53.495-131.093,123.914v0
								c-0.145,5.146,0.105,10.203,0.558,15.206c9.298-63.038,64.409-110.6,129.681-108.762l163.933,4.615l0.855-30.358
								L1488.228,1538.98z"/>
						</g>
						<g style="opacity:0.25;">
							<path style="fill:#000072;" d="M1646.089,1543.424l-5.641,200.363l-157.862-4.444
								c-61.03-1.718-110.77-46.059-121.675-103.687c-2.174,8.756-3.513,17.849-3.778,27.238v0
								c-1.983,70.418,53.496,129.111,123.914,131.093l163.933,4.615l7.179-255.007L1646.089,1543.424z"/>
						</g>
						<g>
							<path style="fill:#000072;" d="M1644.982,1813.603c-0.139,0-0.281-0.002-0.422-0.005l-219.424-6.177
								c-47.976-1.353-85.908-41.484-84.558-89.46l3.122-110.979c1.353-47.979,41.489-85.852,89.46-84.558l219.422,6.177
								c8.281,0.234,14.805,7.136,14.573,15.418l-7.178,255.007c-0.112,3.977-1.799,7.747-4.69,10.479
								C1652.497,1812.14,1648.81,1813.603,1644.982,1813.603z M1430.688,1552.389c-30.718,0-56.128,24.539-56.997,55.437
								l-3.123,110.979c-0.886,31.44,23.972,57.742,55.413,58.625l204.429,5.757l6.336-225.02l-204.429-5.754
								C1431.774,1552.397,1431.227,1552.389,1430.688,1552.389z"/>
						</g>
						<g>
							
								<ellipse transform="matrix(0.7267 -0.6869 0.6869 0.7267 -748.2909 1449.938)" style="fill:#000072;" cx="1448.208" cy="1665.458" rx="30.37" ry="30.37"/>
						</g>
						<g style="opacity:0.25;">
							<path style="fill:#371A45;" d="M2551.697,1933.506l-90.126-2.537l10.256-364.296l90.126,2.537
								c40.762,1.148,72.876,35.122,71.729,75.885l-6.101,216.682C2626.434,1902.54,2592.459,1934.654,2551.697,1933.506z"/>
						</g>
						<g>
							<path style="fill:#FFBB4C;" d="M2552.894,1891.005l-90.126-2.537l10.256-364.296l90.126,2.537
								c40.762,1.148,72.876,35.122,71.729,75.885l-6.101,216.682C2627.631,1860.038,2593.656,1892.152,2552.894,1891.005z"/>
						</g>
						<g style="opacity:0.55;">
							<path style="fill:#FFFFFF;" d="M2531.996,1525.832l-58.972-1.66l-0.854,30.358l58.972,1.66
								c57.969,1.632,103.638,49.948,102.006,107.916l0.855-30.358C2635.634,1575.779,2589.964,1527.464,2531.996,1525.832z"/>
						</g>
						<g style="opacity:0.25;">
							<path style="fill:#000072;" d="M2523.791,1817.268l-58.972-1.66l-2.051,72.859l58.972,1.66
								c57.969,1.632,106.284-44.037,107.916-102.006l2.051-72.859C2630.075,1773.231,2581.759,1818.901,2523.791,1817.268z"/>
						</g>
						<g>
							<path style="fill:#000072;" d="M2563.595,1906.274c-0.92,0-1.841-0.015-2.764-0.039l-98.486-2.774
								c-8.281-0.234-14.805-7.136-14.573-15.417l10.256-364.294c0.112-3.977,1.799-7.747,4.692-10.479
								c2.893-2.732,6.777-4.128,10.725-4.094l98.486,2.773c52.737,1.484,94.436,45.598,92.954,98.34l-5.715,202.991
								c-0.72,25.549-11.345,49.287-29.919,66.843C2611.349,1897.048,2588.126,1906.271,2563.595,1906.274z M2478.183,1873.893
								l83.494,2.351l0,0c17.512,0.542,34.219-5.869,46.968-17.922c12.749-12.051,20.044-28.347,20.537-45.886l5.715-202.991
								c1.018-36.204-27.605-66.487-63.809-67.505l-83.491-2.351L2478.183,1873.893z"/>
						</g>
						<g>
							<path style="fill:#000072;" d="M2633.866,1653.849c-0.142,0-0.286-0.002-0.43-0.005l-163.933-4.614
								c-8.281-0.234-14.805-7.136-14.573-15.418c0.232-8.279,7.017-14.729,15.417-14.573l163.933,4.614
								c8.281,0.234,14.805,7.136,14.573,15.418C2648.625,1647.409,2641.955,1653.849,2633.866,1653.849z"/>
						</g>
						<g>
							<path style="fill:#000072;" d="M2629.87,1795.759c-0.142,0-0.286-0.002-0.43-0.005l-160.896-4.531
								c-8.281-0.234-14.805-7.136-14.573-15.417c0.234-8.279,7.124-14.683,15.417-14.573l160.896,4.531
								c8.281,0.234,14.805,7.136,14.573,15.417C2644.628,1789.318,2637.958,1795.759,2629.87,1795.759z"/>
						</g>
						<g style="opacity:0.6;">
							<path style="fill:#FFFFFF;" d="M2051.165,752.742c-131.416-3.7-257.057,19.458-371.247,64.205
								c-18.754,4.297-38.173,10.284-57.736,18.037c-46.773,18.536-86.115,43.819-113.07,70.43
								c-230.827,152.138-385.084,404.032-393.219,692.961c-4.467,158.658,35.694,308.647,109.542,438.959
								c-55.32-116.717-84.568-246.872-80.722-383.46c7.408-263.115,135.963-495.557,333.196-649.886
								c26.908,40.521,118.752,44.069,213.789,6.406c101.355-40.167,167.958-111.996,148.762-160.434
								c-2.33-5.88-5.839-11.133-10.35-15.774c79.73-19.235,163.561-28.375,249.875-25.945
								c337.143,9.492,626.545,193.047,776.669,457.957C2717.083,971.727,2411.378,762.884,2051.165,752.742z"/>
						</g>
						<g>
							<path style="fill:#000072;" d="M2029.274,2513.173c-9.221,0-18.384-0.127-27.664-0.386
								c-247.795-6.978-478.196-105.889-648.762-278.516c-170.771-172.837-261.135-398.843-254.446-636.389
								c13.797-490.068,441.387-876.987,953.254-862.634c511.829,14.412,917.007,424.834,903.21,914.902
								C2941.32,2131.332,2528.722,2513.173,2029.274,2513.173z M2024.005,769.858c-480.662,0-877.602,366.738-890.618,829.011
								c-6.416,227.908,80.364,444.827,244.358,610.803c164.199,166.182,386.108,261.406,624.851,268.125
								c8.896,0.254,17.822,0.376,26.665,0.376c480.664,0.029,877.605-366.738,890.62-829.009
								c13.254-470.774-376.672-865.061-869.211-878.931C2041.774,769.985,2032.848,769.858,2024.005,769.858z"/>
						</g>
						<g>
							<g style="opacity:0.25;">
								<path style="fill:#000072;" d="M1204.138,1909.936c126.859,306.188,431.036,526.411,792.113,536.578
									c485.61,13.672,890.041-357.679,903.323-829.432c1.832-65.062-3.961-128.6-16.44-189.888
									c6.058,25.758,10.929,51.945,14.546,78.501c-3.876-28.563-9.156-56.708-15.864-84.347
									c-10.797,368.927-276.069,675.86-638.294,784.864c159.261-79.186,271.065-243.104,276.482-435.515
									c7.774-276.139-206.385-506.225-478.315-513.881c-271.931-7.656-498.697,210.016-506.472,486.155
									c-7.026,249.558,167.232,461.46,401.564,505.596c-4.645-0.066-9.279-0.101-13.938-0.232
									c-298.659-8.408-561.007-143.833-726.569-347.811c0.001,0,0.002,0,0.003,0.006
									C1198.85,1903.693,1201.518,1906.795,1204.138,1909.936z M1693.487,1747.426c5.267-187.087,159.44-335.078,343.678-329.891
									c184.237,5.187,329.838,161.618,324.571,348.705s-159.439,335.072-343.676,329.885
									C1833.822,2090.938,1688.22,1934.513,1693.487,1747.426z"/>
							</g>
						</g>
						<g>
							<path style="fill:#FFBB4C;" d="M2051,1190.239c-281.662-7.93-516.444,213.994-524.374,495.656
								c-7.93,281.662,213.994,516.444,495.656,524.374s516.444-213.994,524.374-495.655S2332.662,1198.169,2051,1190.239z
								 M2026.897,2046.335c-190.831-5.373-341.71-164.995-336.338-355.825c5.373-190.83,164.995-341.71,355.825-336.338
								c190.83,5.373,341.71,164.995,336.338,355.825C2377.35,1900.828,2217.728,2051.708,2026.897,2046.335z"/>
						</g>
						<g style="opacity:0.55;">
							<g>
								<path style="fill:#FFFFFF;" d="M2049.803,1232.741c274.535,7.729,492.214,230.998,495.717,503.108
									c0.488-7.048,0.935-14.109,1.136-21.235c7.93-281.662-213.994-516.444-495.656-524.374s-516.444,213.994-524.374,495.656
									c-0.201,7.127-0.152,14.201-0.061,21.266C1545.372,1435.679,1775.269,1225.011,2049.803,1232.741z"/>
							</g>
						</g>
						<g style="opacity:0.25;">
							<path style="fill:#000072;" d="M2025.53,2094.908c190.831,5.373,350.366-142.443,355.633-329.507
								c0.311-11.045,0.034-21.973-0.721-32.781c-21.694,171.284-173.506,301.874-353.068,296.819s-323.787-143.98-335.809-316.214
								c-1.362,10.748-2.253,21.643-2.564,32.688C1683.733,1932.978,1834.699,2089.535,2025.53,2094.908z"/>
						</g>
						<g>
							
								<ellipse transform="matrix(0.7071 -0.7071 0.7071 0.7071 -605.7429 1938.1155)" style="fill:#000072;" cx="2036.641" cy="1700.254" rx="346.218" ry="346.219"/>
						</g>
						<g style="opacity:0.25;">
							<path style="fill:#000072;" d="M2356.818,1568.797c3.029,20.054,4.431,40.615,3.84,61.586
								c-5.373,190.829-164.994,341.71-355.825,336.338c-140.874-3.966-259.891-92.038-310.433-214.626
								c24.535,162.432,162.639,289.459,332.498,294.241c190.831,5.373,350.452-145.509,355.825-336.338
								C2384.129,1660.042,2374.74,1612.268,2356.818,1568.797z"/>
						</g>
						<g>
							<path style="fill:#000072;" d="M2036.776,2058.974c-3.408,0-6.804-0.044-10.232-0.142l0,0
								c-197.72-5.571-354.045-170.957-348.479-368.674c5.566-197.72,171.113-353.872,368.669-348.481
								c95.632,2.693,184.587,42.566,250.479,112.275c65.891,69.709,100.696,160.767,98.003,256.396
								C2389.748,1904.64,2229.931,2058.974,2036.776,2058.974z M2027.248,2033.842c183.975,5.151,337.803-140.256,342.979-324.197
								c2.505-88.955-29.878-173.665-91.182-238.521s-144.055-101.953-233.013-104.458
								c-184.009-5.156-337.798,140.254-342.976,324.194C1697.875,1874.799,1843.307,2028.661,2027.248,2033.842L2027.248,2033.842z
								"/>
						</g>
						<g>
							<path style="fill:#000072;" d="M2037.021,2225.478c-5.049,0-10.093-0.073-15.161-0.215
								c-140.234-3.95-270.537-62.271-366.907-164.224c-96.37-101.953-147.271-235.332-143.323-375.566
								c8.152-289.492,250.222-518.352,539.792-510.229c289.492,8.154,518.379,250.303,510.227,539.792
								c-3.948,140.234-62.271,270.537-164.224,366.907C2299.157,2174.828,2171.679,2225.478,2037.021,2225.478z M2036.452,1205.033
								c-266.672,0-487.278,213.044-494.831,481.284c-3.723,132.224,44.267,257.983,135.134,354.111
								c90.864,96.133,213.726,151.123,345.95,154.844c132.122,3.804,257.983-44.263,354.114-135.132
								c96.128-90.864,151.121-213.726,154.841-345.95c7.688-272.954-208.125-501.272-481.082-508.958
								C2045.863,1205.099,2041.139,1205.033,2036.452,1205.033z"/>
						</g>
						<g>
							<path style="fill:#371A45;" d="M2755.017,1355.894"/>
						</g>
						<g style="opacity:0.3;">
							<g>
								<path style="fill:#FFFFFF;" d="M2172.634,1819.171c-28.841,28.591-43.261,42.886-51.138,48.39
									c-28.574,19.965-41.786,14.574-57.115,34.051c-7.733,9.826-11.537,22.661-10.406,35.115
									c0.437,4.808,1.621,9.645,4.24,13.699c5.716,8.845,16.9,12.246,27.292,13.949c67.842,11.112,141.223-28.036,168.219-91.259
									c5.651-13.234,9.436-27.697,7.63-41.973c-0.552-4.365-4.918-25.701-23.113-34.253c-15.075-7.085-30.542-0.996-37.626,1.793
									C2188.183,1803.578,2180.946,1810.931,2172.634,1819.171z"/>
							</g>
						</g>
						<g style="opacity:0.5;">
							<g>
								<path style="fill:#FFFFFF;" d="M2178.091,1441.692c-19.644-17.116-45.566-25.162-71.169-29.993
									c-55.684-10.507-114.408-7.622-167.424,12.389c-53.016,20.011-99.911,57.72-127.234,107.364
									c-7.316,13.292-13.303,27.663-14.449,42.792c-1.146,15.129,3.081,31.175,13.814,41.899
									c16.657,16.645,44.524,16.401,66.089,6.941c21.564-9.46,38.865-26.262,57.447-40.727
									c38.032-29.605,85.66-50.626,133.537-45.095c23.404,2.703,45.754,11.579,69.148,14.37
									c23.394,2.791,50.022-2.128,64.035-21.067c9.624-13.007,11.481-30.703,7.384-46.356
									c-4.047-15.462-13.631-29.413-26.612-38.738"/>
							</g>
						</g>
						<g style="opacity:0.5;">
							<g>
								<path style="fill:#FFFFFF;" d="M1761.674,1674.283c-15.469,13.302-16.173,32.217-16.396,38.214
									c-0.177,4.767-1.035,27.811,15.348,40.829c8.38,6.658,18.067,8.148,21.209,8.595c3.625,0.516,11.546,1.557,19.947-1.439
									c20.509-7.315,26.358-32.444,27.229-36.185c0.984-4.227,3.574-16.041-1.063-29.919c-1.867-5.588-8.088-24.211-26.259-30.143
									C1781.564,1657.666,1763.995,1672.287,1761.674,1674.283z"/>
							</g>
						</g>
					</g>
				</g>
			</g>
		</g>
	</g>
</g>
</svg>
